<svg xmlns="http://www.w3.org/2000/svg" xmlns:xlink="http://www.w3.org/1999/xlink" width="200" zoomAndPan="magnify" viewBox="0 0 150 149.999998" height="200" preserveAspectRatio="xMidYMid meet" version="1.0"><path fill="#ffffff" d="M 20.066406 81.113281 C 21.492188 81.78125 23.023438 82.207031 24.621094 82.316406 C 32.582031 82.871094 38.109375 75.226562 38.011719 67.8125 C 37.945312 62.796875 36.890625 57.871094 33.582031 53.941406 C 28.601562 48.015625 20.65625 45.515625 14.460938 51.21875 C 5.703125 59.28125 9.8125 76.3125 20.066406 81.113281 Z M 20.066406 81.113281 " fill-opacity="1" fill-rule="nonzero"/><path fill="#ffffff" d="M 41.972656 49.144531 C 49.621094 58.523438 64.171875 57.097656 68.613281 45.527344 C 72.179688 35.914062 72.0625 23.074219 65.527344 14.828125 C 60.625 9.179688 51.703125 7.507812 45.085938 10.996094 C 31.859375 17.96875 33.441406 39.277344 41.972656 49.144531 Z M 41.972656 49.144531 " fill-opacity="1" fill-rule="nonzero"/><path fill="#ffffff" d="M 77.441406 42.128906 C 78.691406 49.582031 82.933594 55.878906 91.050781 57.433594 C 110.738281 61.203125 119.558594 29.554688 107.480469 17.53125 C 101.75 11.828125 91.515625 9.6875 85.09375 15.703125 C 78.34375 22.027344 75.957031 33.289062 77.441406 42.128906 Z M 77.441406 42.128906 " fill-opacity="1" fill-rule="nonzero"/><path fill="#ffffff" d="M 116.796875 82.234375 C 130.8125 90.824219 144.28125 71.820312 138.800781 59.058594 C 135.351562 51.023438 126.722656 46.640625 119.273438 52.441406 C 114.175781 56.414062 110.839844 63.351562 110.558594 69.761719 C 110.308594 75.527344 112.9375 79.871094 116.796875 82.234375 Z M 116.796875 82.234375 " fill-opacity="1" fill-rule="nonzero"/><path fill="#ffffff" d="M 109.710938 84.835938 C 99.492188 71.78125 82.683594 63.242188 65.925781 66.207031 C 44.628906 70.347656 27.976562 92.445312 25.417969 113.324219 C 24.371094 125.003906 33.300781 134.273438 44.1875 137.171875 C 62.726562 142.5 93.703125 141.503906 111.246094 133.394531 C 130.546875 122.703125 120.015625 97.992188 109.710938 84.835938 Z M 97.964844 111.148438 L 81.773438 111.148438 L 81.773438 127.339844 L 65.578125 127.339844 L 65.578125 111.148438 L 49.382812 111.148438 L 49.382812 94.953125 L 65.578125 94.953125 L 65.578125 78.757812 L 81.773438 78.757812 L 81.773438 94.953125 L 97.964844 94.953125 Z M 97.964844 111.148438 " fill-opacity="1" fill-rule="nonzero"/></svg>