<svg xmlns="http://www.w3.org/2000/svg" xmlns:xlink="http://www.w3.org/1999/xlink" width="200" zoomAndPan="magnify" viewBox="0 0 150 149.999998" height="200" preserveAspectRatio="xMidYMid meet" version="1.0"><defs><clipPath id="ed2a88073b"><path d="M 7.5 20.070312 L 142.5 20.070312 L 142.5 129.570312 L 7.5 129.570312 Z M 7.5 20.070312 " clip-rule="nonzero"/></clipPath></defs><g clip-path="url(#ed2a88073b)"><path fill="#ffffff" d="M 108.742188 20.070312 C 86.339844 20.070312 75 36.550781 75 36.550781 C 75 36.550781 63.660156 20.070312 41.257812 20.070312 C 21.277344 20.070312 7.515625 37.285156 7.515625 57.25 C 7.515625 79.308594 24.574219 109.007812 75 129.921875 C 125.425781 109.007812 142.484375 79.308594 142.484375 57.25 C 142.484375 37.285156 128.722656 20.070312 108.742188 20.070312 Z M 77.359375 53.269531 C 79.109375 44.816406 87.761719 38.894531 92.558594 48.957031 C 96.683594 56.75 86.417969 76.183594 78.578125 63.90625 C 76.671875 60.90625 76.5625 56.640625 77.359375 53.269531 Z M 57.441406 48.957031 C 62.238281 38.894531 70.890625 44.816406 72.640625 53.269531 C 73.4375 56.625 73.328125 60.890625 71.421875 63.90625 C 63.582031 76.199219 53.316406 56.765625 57.441406 48.957031 Z M 42.148438 65.875 C 45.742188 56.4375 53.972656 61.140625 56.175781 68.640625 C 57.128906 71.609375 57.347656 75.480469 55.863281 78.324219 C 49.675781 89.996094 38.992188 73.214844 42.148438 65.875 Z M 92.605469 106.132812 C 88.964844 106.804688 84.699219 105.570312 81.5 103.070312 C 81.34375 102.945312 81.171875 102.820312 81.015625 102.710938 C 78.734375 101.164062 76.875 100.398438 75 100.398438 C 73.125 100.398438 71.265625 101.164062 68.984375 102.710938 C 68.8125 102.820312 68.65625 102.945312 68.5 103.070312 C 65.316406 105.570312 61.035156 106.789062 57.394531 106.132812 C 52.847656 105.304688 49.878906 100.867188 50.707031 96.320312 C 52.378906 87.105469 61.566406 74.746094 70.421875 71.015625 C 71.890625 70.390625 73.453125 70.09375 75 70.09375 C 76.5625 70.09375 78.125 70.40625 79.578125 71.015625 C 88.433594 74.746094 97.621094 87.105469 99.292969 96.320312 C 100.121094 100.867188 97.152344 105.304688 92.605469 106.132812 Z M 94.152344 78.324219 C 92.652344 75.464844 92.871094 71.609375 93.824219 68.640625 C 96.027344 61.140625 104.257812 56.4375 107.851562 65.875 C 111.007812 73.214844 100.324219 89.996094 94.152344 78.324219 Z M 94.152344 78.324219 " fill-opacity="1" fill-rule="nonzero"/></g></svg>