<svg xmlns="http://www.w3.org/2000/svg" xmlns:xlink="http://www.w3.org/1999/xlink" width="200" zoomAndPan="magnify" viewBox="0 0 150 149.999998" height="200" preserveAspectRatio="xMidYMid meet" version="1.0"><defs><clipPath id="5440d59f17"><path d="M 11.707031 7 L 138 7 L 138 143.351562 L 11.707031 143.351562 Z M 11.707031 7 " clip-rule="nonzero"/></clipPath></defs><g clip-path="url(#5440d59f17)"><path fill="#ffffff" d="M 60.019531 7.351562 C 44.054688 7.351562 31.03125 20.375 31.03125 36.34375 C 31.03125 52.308594 44.054688 65.332031 60.019531 65.332031 C 75.988281 65.332031 89.011719 52.308594 89.011719 36.34375 C 89.011719 20.375 75.988281 7.351562 60.019531 7.351562 Z M 60.019531 65.332031 C 33.371094 65.332031 11.707031 86.996094 11.707031 113.648438 L 21.367188 113.648438 C 21.367188 92.320312 38.695312 74.996094 60.019531 74.996094 C 69.003906 74.996094 77.15625 78.203125 83.726562 83.296875 L 90.480469 76.429688 C 82.140625 69.632812 71.609375 65.332031 60.019531 65.332031 Z M 60.019531 17.015625 C 70.742188 17.015625 79.347656 25.621094 79.347656 36.34375 C 79.347656 47.0625 70.742188 55.667969 60.019531 55.667969 C 49.300781 55.667969 40.695312 47.0625 40.695312 36.34375 C 40.695312 25.621094 49.300781 17.015625 60.019531 17.015625 Z M 119.960938 65.367188 C 116.828125 65.40625 113.695312 66.613281 111.355469 69.03125 L 66.285156 114.855469 L 59.566406 143.089844 L 87.800781 136.40625 L 88.746094 135.425781 L 133.664062 91.300781 C 138.457031 86.621094 138.53125 78.730469 133.738281 73.976562 L 128.679688 68.878906 C 126.304688 66.5 123.132812 65.332031 119.960938 65.367188 Z M 120.039062 74.957031 C 120.679688 74.957031 121.320312 75.222656 121.847656 75.75 L 126.90625 80.808594 C 127.964844 81.828125 127.964844 83.375 126.90625 84.429688 L 82.96875 127.574219 L 72.550781 130.105469 L 75.042969 119.6875 L 118.261719 75.75 C 118.753906 75.222656 119.394531 74.957031 120.039062 74.957031 Z M 120.039062 74.957031 " fill-opacity="1" fill-rule="nonzero"/></g></svg>