<svg xmlns="http://www.w3.org/2000/svg" xmlns:xlink="http://www.w3.org/1999/xlink" width="200" zoomAndPan="magnify" viewBox="0 0 150 149.999998" height="200" preserveAspectRatio="xMidYMid meet" version="1.0"><defs><clipPath id="81c943fbe8"><path d="M 37.503906 68.382812 L 116.722656 68.382812 L 116.722656 128.125 L 37.503906 128.125 Z M 37.503906 68.382812 " clip-rule="nonzero"/></clipPath></defs><g clip-path="url(#81c943fbe8)"><path fill="#ffffff" d="M 54.960938 89.175781 C 48.640625 95.550781 34.996094 98.882812 38.105469 115.433594 C 41.273438 132.300781 64.636719 127.949219 76.816406 127.578125 C 83.296875 127.382812 109.941406 132.351562 115.199219 118.96875 C 119.796875 107.261719 112.207031 99.421875 100.71875 90.203125 C 90.457031 81.96875 87.539062 68.28125 75.644531 68.398438 C 64.503906 68.511719 58.832031 85.273438 54.960938 89.175781 " fill-opacity="1" fill-rule="nonzero"/></g><path fill="#ffffff" d="M 33.355469 64.066406 C 39.882812 71.421875 41.121094 80.742188 36.125 84.882812 C 31.125 89.023438 21.785156 86.421875 15.257812 79.070312 C 8.734375 71.714844 7.496094 62.394531 12.488281 58.253906 C 17.488281 54.113281 26.828125 56.714844 33.355469 64.066406 " fill-opacity="1" fill-rule="nonzero"/><path fill="#ffffff" d="M 65.167969 40.882812 C 68.296875 51.46875 65.355469 61.566406 58.601562 63.4375 C 51.839844 65.308594 43.824219 58.246094 40.695312 47.660156 C 37.566406 37.078125 40.507812 26.980469 47.265625 25.105469 C 54.023438 23.234375 62.039062 30.300781 65.167969 40.882812 " fill-opacity="1" fill-rule="nonzero"/><path fill="#ffffff" d="M 106.046875 45.453125 C 102.90625 55.816406 95.039062 62.757812 88.480469 60.953125 C 81.917969 59.152344 79.140625 49.292969 82.277344 38.929688 C 85.417969 28.566406 93.28125 21.625 99.847656 23.425781 C 106.40625 25.226562 109.183594 35.089844 106.046875 45.453125 " fill-opacity="1" fill-rule="nonzero"/><path fill="#ffffff" d="M 134.386719 78.710938 C 127.527344 86.632812 117.660156 89.570312 112.339844 85.273438 C 107.023438 80.972656 108.269531 71.0625 115.125 63.136719 C 121.980469 55.210938 131.851562 52.273438 137.175781 56.574219 C 142.492188 60.871094 141.246094 70.78125 134.386719 78.710938 " fill-opacity="1" fill-rule="nonzero"/></svg>