<svg xmlns="http://www.w3.org/2000/svg" xmlns:xlink="http://www.w3.org/1999/xlink" width="200" zoomAndPan="magnify" viewBox="0 0 150 149.999998" height="200" preserveAspectRatio="xMidYMid meet" version="1.0"><defs><clipPath id="8dae0e9228"><path d="M 7 16 L 143 16 L 143 136.503906 L 7 136.503906 Z M 7 16 " clip-rule="nonzero"/></clipPath></defs><g clip-path="url(#8dae0e9228)"><path fill="#ffffff" d="M 139.582031 116.15625 L 86.738281 24.640625 C 80.277344 13.449219 69.714844 13.449219 63.25 24.640625 L 10.410156 116.15625 C 3.945312 127.355469 9.234375 136.492188 22.148438 136.492188 L 127.839844 136.492188 C 140.757812 136.492188 146.039062 127.355469 139.582031 116.15625 Z M 67.738281 50.605469 C 69.636719 48.554688 72.046875 47.523438 74.996094 47.523438 C 77.945312 47.523438 80.355469 48.539062 82.253906 50.5625 C 84.140625 52.589844 85.085938 55.128906 85.085938 58.175781 C 85.085938 60.800781 81.144531 80.089844 79.832031 94.121094 L 70.335938 94.121094 C 69.179688 80.089844 64.90625 60.800781 64.90625 58.175781 C 64.90625 55.171875 65.851562 52.648438 67.738281 50.605469 Z M 82.117188 117.328125 C 80.121094 119.273438 77.746094 120.246094 74.996094 120.246094 C 72.246094 120.246094 69.867188 119.273438 67.875 117.328125 C 65.882812 115.386719 64.894531 113.039062 64.894531 110.273438 C 64.894531 107.53125 65.882812 105.148438 67.875 103.15625 C 69.871094 101.164062 72.246094 100.171875 74.996094 100.171875 C 77.746094 100.171875 80.125 101.164062 82.117188 103.15625 C 84.109375 105.148438 85.097656 107.523438 85.097656 110.273438 C 85.101562 113.039062 84.109375 115.386719 82.117188 117.328125 Z M 82.117188 117.328125 " fill-opacity="1" fill-rule="nonzero"/></g></svg>