<svg xmlns="http://www.w3.org/2000/svg" xmlns:xlink="http://www.w3.org/1999/xlink" width="200" zoomAndPan="magnify" viewBox="0 0 150 149.999998" height="200" preserveAspectRatio="xMidYMid meet" version="1.0"><defs><clipPath id="0394620452"><path d="M 79 48.019531 L 145.03125 48.019531 L 145.03125 130.351562 L 79 130.351562 Z M 79 48.019531 " clip-rule="nonzero"/></clipPath><clipPath id="a86ed7db05"><path d="M 4.871094 48.019531 L 71 48.019531 L 71 130.351562 L 4.871094 130.351562 Z M 4.871094 48.019531 " clip-rule="nonzero"/></clipPath><clipPath id="c50fd6bc56"><path d="M 37 19.351562 L 108 19.351562 L 108 60 L 37 60 Z M 37 19.351562 " clip-rule="nonzero"/></clipPath></defs><g clip-path="url(#0394620452)"><path fill="#ffffff" d="M 143.375 48.269531 C 141.84375 48.445312 140.25 48.355469 136.824219 51.617188 C 133.355469 54.921875 130.765625 61.855469 130.296875 66.617188 C 130.144531 68.132812 130.085938 69.210938 130.066406 69.945312 C 130.039062 70.875 128.953125 71.792969 128.402344 72.539062 C 125.449219 76.527344 116.90625 86.917969 113.351562 90.921875 C 112.832031 91.503906 111.859375 91.019531 111.886719 90.355469 C 111.90625 89.855469 112.183594 89.300781 112.539062 88.472656 C 113.789062 85.546875 124.808594 72.757812 119.765625 68.9375 C 114.933594 65.273438 107.640625 76.226562 105.890625 79.457031 C 105.210938 80.710938 104.382812 82.039062 103.582031 83.242188 C 103.582031 83.242188 101.714844 88.488281 99.582031 90.039062 C 95.050781 93.199219 89.230469 95.4375 84.648438 102.023438 C 80.449219 108.0625 80.121094 112.527344 79.863281 114.511719 C 79.558594 116.882812 80.128906 118.628906 79.820312 119.941406 L 79.0625 129.539062 C 79.003906 130.179688 79.535156 130.71875 80.175781 130.667969 L 92.777344 130.671875 L 101.5 130.671875 C 101.5 130.671875 101.902344 130.777344 102.261719 129.34375 C 103.132812 125.859375 104.933594 122.675781 107.425781 120.089844 C 110.304688 117.101562 114.378906 113.105469 119.699219 107.261719 C 133.367188 92.261719 132.253906 92.070312 134.253906 86.992188 C 135.695312 83.316406 138.148438 77.347656 139.460938 73.976562 C 139.84375 72.984375 140.375 72.148438 140.714844 70.878906 L 145.113281 49.894531 C 145.164062 48.933594 144.335938 48.15625 143.375 48.269531 " fill-opacity="1" fill-rule="nonzero"/></g><g clip-path="url(#a86ed7db05)"><path fill="#ffffff" d="M 6.609375 48.269531 C 8.140625 48.445312 9.738281 48.355469 13.164062 51.617188 C 16.628906 54.921875 19.222656 61.855469 19.691406 66.617188 C 19.839844 68.132812 19.902344 69.210938 19.921875 69.945312 C 19.945312 70.875 21.03125 71.792969 21.585938 72.539062 C 24.535156 76.527344 33.082031 86.917969 36.636719 90.921875 C 37.15625 91.503906 38.128906 91.019531 38.101562 90.355469 C 38.078125 89.855469 37.804688 89.300781 37.449219 88.472656 C 36.199219 85.546875 25.175781 72.757812 30.21875 68.9375 C 35.054688 65.273438 42.34375 76.226562 44.09375 79.457031 C 44.773438 80.710938 45.605469 82.039062 46.402344 83.242188 C 46.402344 83.242188 48.273438 88.488281 50.402344 90.039062 C 54.933594 93.199219 60.757812 95.4375 65.339844 102.023438 C 69.539062 108.0625 69.867188 112.527344 70.121094 114.511719 C 70.429688 116.882812 69.859375 118.628906 70.164062 119.941406 L 70.925781 129.539062 C 70.984375 130.179688 70.453125 130.71875 69.8125 130.667969 L 57.210938 130.671875 L 48.488281 130.671875 C 48.488281 130.671875 48.082031 130.777344 47.722656 129.34375 C 46.855469 125.859375 45.050781 122.675781 42.558594 120.089844 C 39.683594 117.101562 35.609375 113.105469 30.285156 107.261719 C 16.617188 92.261719 17.734375 92.070312 15.734375 86.992188 C 14.289062 83.316406 11.835938 77.347656 10.527344 73.976562 C 10.144531 72.984375 9.613281 72.148438 9.273438 70.878906 L 4.871094 49.894531 C 4.824219 48.933594 5.652344 48.15625 6.609375 48.269531 " fill-opacity="1" fill-rule="nonzero"/></g><g clip-path="url(#c50fd6bc56)"><path fill="#ffffff" d="M 106.265625 51.898438 L 79.351562 24.980469 L 79.398438 24.933594 L 75.101562 20.640625 C 73.832031 19.367188 71.773438 19.359375 70.496094 20.625 L 66.121094 24.933594 L 66.167969 24.980469 L 39.25 51.898438 C 37.449219 53.699219 37.449219 56.621094 39.25 58.425781 L 39.316406 58.488281 C 41.117188 60.292969 44.042969 60.292969 45.84375 58.488281 L 72.757812 31.574219 L 99.675781 58.488281 C 101.476562 60.292969 104.398438 60.292969 106.203125 58.488281 L 106.265625 58.425781 C 108.070312 56.621094 108.070312 53.699219 106.265625 51.898438 " fill-opacity="1" fill-rule="nonzero"/></g><path fill="#ffffff" d="M 71.777344 64.34375 L 71.777344 57.46875 C 71.777344 56.914062 71.328125 56.464844 70.773438 56.464844 L 63.898438 56.464844 C 63.34375 56.464844 62.890625 56.914062 62.890625 57.46875 L 62.890625 64.34375 C 62.890625 64.902344 63.34375 65.351562 63.898438 65.351562 L 70.773438 65.351562 C 71.328125 65.351562 71.777344 64.902344 71.777344 64.34375 " fill-opacity="1" fill-rule="nonzero"/><path fill="#ffffff" d="M 74.746094 65.351562 L 81.621094 65.351562 C 82.175781 65.351562 82.628906 64.902344 82.628906 64.34375 L 82.628906 57.46875 C 82.628906 56.914062 82.175781 56.464844 81.621094 56.464844 L 74.746094 56.464844 C 74.191406 56.464844 73.738281 56.914062 73.738281 57.46875 L 73.738281 64.34375 C 73.738281 64.902344 74.191406 65.351562 74.746094 65.351562 " fill-opacity="1" fill-rule="nonzero"/><path fill="#ffffff" d="M 73.738281 68.316406 L 73.738281 75.191406 C 73.738281 75.746094 74.191406 76.199219 74.746094 76.199219 L 81.621094 76.199219 C 82.175781 76.199219 82.628906 75.746094 82.628906 75.191406 L 82.628906 68.316406 C 82.628906 67.761719 82.175781 67.3125 81.621094 67.3125 L 74.746094 67.3125 C 74.191406 67.3125 73.738281 67.761719 73.738281 68.316406 " fill-opacity="1" fill-rule="nonzero"/><path fill="#ffffff" d="M 70.773438 67.3125 L 63.898438 67.3125 C 63.34375 67.3125 62.890625 67.761719 62.890625 68.316406 L 62.890625 75.191406 C 62.890625 75.746094 63.34375 76.199219 63.898438 76.199219 L 70.773438 76.199219 C 71.328125 76.199219 71.777344 75.746094 71.777344 75.191406 L 71.777344 68.316406 C 71.777344 67.761719 71.328125 67.3125 70.773438 67.3125 " fill-opacity="1" fill-rule="nonzero"/><path fill="#ffffff" d="M 60.300781 43.394531 L 48.898438 43.394531 L 48.898438 25.273438 C 48.898438 24.375 49.628906 23.648438 50.527344 23.648438 L 58.671875 23.648438 C 59.570312 23.648438 60.300781 24.375 60.300781 25.273438 L 60.300781 43.394531 " fill-opacity="1" fill-rule="nonzero"/></svg>