<svg xmlns="http://www.w3.org/2000/svg" xmlns:xlink="http://www.w3.org/1999/xlink" width="200" zoomAndPan="magnify" viewBox="0 0 150 149.999998" height="200" preserveAspectRatio="xMidYMid meet" version="1.0"><defs><clipPath id="06aeca7348"><path d="M 1.910156 0 L 148 0 L 148 150 L 1.910156 150 Z M 1.910156 0 " clip-rule="nonzero"/></clipPath></defs><path fill="#ffffff" d="M 114.570312 96.648438 C 114.332031 98.75 113.820312 100.671875 113.070312 102.378906 C 112.710938 103.25 112.257812 104.089844 111.777344 104.839844 C 109.796875 107.871094 106.855469 109.972656 103.582031 110.84375 C 102.441406 111.171875 101.273438 111.324219 100.070312 111.324219 C 97.640625 111.324219 95.269531 110.664062 93.195312 109.371094 C 90.886719 107.960938 89.144531 105.890625 88.09375 103.550781 C 87.222656 101.570312 86.773438 99.410156 86.890625 97.21875 C 86.980469 95.480469 87.402344 93.707031 88.152344 92.027344 C 89.59375 88.878906 92.144531 86.207031 95.449219 84.316406 C 96.589844 83.65625 97.820312 83.085938 99.109375 82.667969 C 99.949219 82.304688 100.851562 81.945312 101.753906 81.617188 C 101.933594 81.554688 102.140625 81.496094 102.351562 81.4375 C 103.222656 81.167969 104.363281 80.894531 105.59375 80.894531 C 106.976562 80.894531 108.296875 81.195312 109.496094 81.796875 C 112.050781 83.054688 113.820312 85.488281 114.359375 88.457031 C 114.8125 91.007812 114.871094 93.917969 114.570312 96.648438 Z M 114.570312 96.648438 " fill-opacity="1" fill-rule="nonzero"/><path fill="#ffffff" d="M 82.898438 104.570312 C 82.6875 104.570312 82.449219 104.570312 82.238281 104.539062 C 75.125 104.179688 69.628906 98.390625 69.421875 91.066406 C 69.300781 86.449219 71.339844 81.644531 75.0625 77.894531 C 75.632812 77.234375 76.265625 76.484375 76.984375 75.765625 C 79.058594 73.605469 81.457031 72.496094 84.039062 72.496094 C 86.980469 72.554688 89.535156 73.933594 91.363281 76.394531 C 93.195312 78.886719 94.425781 81.644531 95.117188 83.507812 C 96.257812 86.597656 96.648438 89.628906 96.226562 92.539062 C 95.238281 99.558594 89.625 104.570312 82.898438 104.570312 Z M 82.898438 104.570312 " fill-opacity="1" fill-rule="nonzero"/><path fill="#ffffff" d="M 105.925781 121.074219 C 105.714844 126.503906 103.101562 131.457031 98.78125 134.1875 C 96.617188 135.566406 94.277344 136.226562 91.785156 136.226562 C 89.472656 136.226562 87.101562 135.628906 84.730469 134.425781 C 83.167969 133.648438 81.609375 132.597656 80.046875 131.304688 L 79.355469 130.734375 C 78.097656 129.6875 77.015625 128.753906 76.113281 128.515625 C 75.722656 128.394531 75.335938 128.367188 74.945312 128.367188 C 74.375 128.367188 73.832031 128.457031 73.351562 128.664062 C 72.960938 128.816406 72.363281 129.144531 71.792969 129.445312 C 70.742188 130.015625 69.511719 130.707031 68.070312 131.214844 C 66.777344 131.667969 65.367188 132.027344 63.835938 132.027344 C 60.746094 132.027344 57.921875 130.675781 55.820312 128.15625 C 53.210938 125.003906 52.878906 121.613281 53.507812 118.582031 C 54.230469 114.921875 56.300781 111.773438 57.414062 110.121094 C 58.132812 109.042969 58.882812 108.023438 59.605469 107.0625 C 62.574219 103.28125 65.757812 100.550781 69.300781 98.808594 C 69.929688 98.507812 70.5625 98.328125 71.160156 98.210938 C 71.28125 98.148438 71.402344 98.121094 71.523438 98.058594 C 73.503906 97.25 75.542969 96.710938 77.644531 96.46875 C 78.636719 96.347656 79.628906 96.289062 80.585938 96.289062 C 81.730469 96.289062 82.871094 96.378906 84.011719 96.558594 C 85 96.710938 85.960938 96.917969 86.921875 97.160156 C 89.082031 97.757812 91.15625 98.628906 93.105469 99.738281 C 97.640625 102.351562 101.363281 106.25 103.644531 110.78125 C 104.753906 113.003906 105.503906 115.34375 105.835938 117.773438 C 105.925781 118.914062 105.984375 119.992188 105.925781 121.074219 Z M 105.925781 121.074219 " fill-opacity="1" fill-rule="nonzero"/><path fill="#ffffff" d="M 77.585938 96.5 C 77.285156 98.570312 76.503906 100.519531 75.335938 102.199219 C 73.324219 105.140625 70.199219 107.269531 66.507812 107.839844 C 65.816406 107.960938 65.128906 108.023438 64.4375 108.023438 C 62.726562 108.023438 61.074219 107.691406 59.542969 107.089844 C 55.582031 105.53125 52.457031 102.082031 51.136719 97.578125 C 50.746094 96.257812 50.507812 94.910156 50.449219 93.46875 C 50.355469 91.96875 50.476562 90.378906 50.71875 88.667969 C 50.957031 87.199219 51.289062 85.878906 51.589844 84.707031 C 51.917969 83.445312 52.398438 81.527344 53.929688 79.757812 C 55.582031 77.804688 57.921875 76.726562 60.472656 76.726562 C 61.316406 76.726562 62.09375 76.84375 62.847656 77.027344 C 64.648438 77.476562 66.117188 78.40625 67.078125 79.003906 C 67.648438 79.367188 68.21875 79.726562 68.761719 80.085938 C 69.839844 80.746094 70.832031 81.464844 71.761719 82.277344 C 75.125 85.1875 77.226562 88.90625 77.675781 92.929688 C 77.824219 94.160156 77.796875 95.359375 77.585938 96.5 Z M 77.585938 96.5 " fill-opacity="1" fill-rule="nonzero"/><g clip-path="url(#06aeca7348)"><path fill="#ffffff" d="M 147.652344 68.652344 C 147.261719 79.546875 139.398438 89.417969 129.609375 92.269531 C 129.550781 93.199219 129.519531 94.097656 129.460938 95 C 128.589844 107.453125 124.929688 124.945312 112.257812 137.488281 C 106.855469 142.859375 100.132812 146.730469 92.835938 148.648438 C 89.414062 149.550781 86.113281 150 83.019531 150 C 80.859375 150 78.785156 149.789062 76.867188 149.339844 C 75.183594 149.128906 73.683594 148.890625 72.273438 148.558594 C 67.4375 147.480469 62.90625 145.769531 58.851562 143.429688 C 55.789062 141.660156 52.820312 139.496094 50.085938 136.976562 C 47.113281 135.085938 44.921875 132.027344 43.542969 130.167969 L 43.453125 130.015625 C 41.019531 126.625 39.128906 122.816406 37.777344 118.703125 C 36.039062 113.394531 35.195312 107.542969 35.078125 100.339844 C 34.746094 99.050781 34.625 97.667969 34.65625 96.199219 C 34.265625 95.058594 33.9375 93.949219 33.636719 92.867188 C 33.367188 92 33.125 91.128906 32.855469 90.289062 C 31.925781 87.46875 30.875 84.257812 29.523438 81.4375 C 27.570312 77.355469 25.109375 73.574219 22.5 69.554688 C 21.507812 68.023438 20.515625 66.523438 19.554688 64.964844 C 17.125 62.53125 15.054688 59.863281 13.34375 56.921875 C 10.671875 52.359375 9.050781 47.230469 8.480469 41.679688 C 8.117188 38.199219 8.269531 35.015625 8.898438 32.195312 C 4.667969 28.894531 2.023438 23.703125 1.964844 18.0625 C 1.933594 13.261719 3.914062 8.582031 7.367188 5.101562 C 10.371094 2.070312 14.210938 0.328125 18.265625 0.121094 C 18.714844 0.0585938 19.136719 0 19.554688 0 L 19.886719 0 L 20.308594 0.0585938 C 29.972656 0.898438 37.328125 9.0625 36.96875 18.632812 C 36.789062 23.585938 34.625 28.265625 30.964844 31.476562 C 28.953125 33.246094 26.703125 34.535156 24.390625 35.226562 C 24.300781 36.96875 24.269531 38.617188 24.417969 40.117188 C 24.71875 43.179688 25.710938 46.238281 27.242188 48.910156 C 28.683594 51.398438 30.785156 53.769531 33.515625 55.992188 C 34.746094 57.011719 36.128906 57.910156 37.570312 58.691406 C 38.109375 58.992188 38.738281 59.261719 39.398438 59.53125 C 39.941406 59.773438 40.449219 59.980469 40.960938 60.222656 C 41.109375 60.253906 41.292969 60.28125 41.441406 60.3125 C 42.582031 60.492188 43.902344 60.582031 45.285156 60.582031 C 46.183594 60.582031 47.144531 60.523438 48.105469 60.460938 C 52.757812 60.101562 56.902344 58.839844 60.113281 56.800781 C 64.136719 54.25 66.117188 50.320312 67.046875 47.46875 C 67.859375 45.007812 68.28125 42.277344 68.699219 39.398438 C 68.730469 39.21875 68.761719 39.007812 68.789062 38.796875 C 63.417969 35.675781 59.84375 29.824219 59.8125 23.285156 C 59.785156 18.515625 61.765625 13.804688 65.21875 10.351562 C 68.21875 7.320312 72.0625 5.582031 76.113281 5.371094 C 76.535156 5.28125 76.957031 5.25 77.40625 5.25 L 77.765625 5.25 L 78.097656 5.28125 C 87.824219 6.179688 95.179688 14.3125 94.847656 23.855469 C 94.667969 28.835938 92.476562 33.515625 88.84375 36.726562 C 87.761719 37.65625 86.050781 38.949219 83.800781 39.90625 C 83.832031 51.582031 78.097656 63.222656 68.878906 69.402344 C 67.140625 72.195312 65.039062 74.65625 62.875 76.964844 C 62.125 76.785156 61.34375 76.664062 60.503906 76.664062 C 57.953125 76.664062 55.640625 77.746094 53.960938 79.695312 C 52.429688 81.464844 51.949219 83.386719 51.617188 84.648438 C 51.316406 85.816406 50.988281 87.167969 50.746094 88.609375 C 50.476562 90.316406 50.386719 91.878906 50.476562 93.410156 C 50.539062 94.847656 50.777344 96.199219 51.167969 97.519531 C 52.488281 102.019531 55.609375 105.472656 59.574219 107.03125 C 58.824219 107.960938 58.101562 109.011719 57.382812 110.09375 C 56.269531 111.742188 54.199219 114.894531 53.480469 118.554688 C 52.847656 121.585938 53.179688 124.976562 55.789062 128.125 C 57.863281 130.617188 60.714844 131.996094 63.804688 131.996094 C 65.335938 131.996094 66.777344 131.667969 68.039062 131.1875 C 69.449219 130.675781 70.710938 130.015625 71.761719 129.414062 C 72.332031 129.117188 72.933594 128.785156 73.324219 128.636719 C 73.804688 128.425781 74.375 128.335938 74.914062 128.335938 C 75.304688 128.335938 75.695312 128.394531 76.085938 128.484375 C 76.984375 128.726562 78.066406 129.625 79.328125 130.707031 L 80.015625 131.277344 C 81.578125 132.566406 83.167969 133.617188 84.699219 134.398438 C 87.074219 135.566406 89.445312 136.195312 91.753906 136.195312 C 94.246094 136.195312 96.589844 135.539062 98.75 134.15625 C 103.074219 131.425781 105.683594 126.476562 105.894531 121.042969 C 105.957031 119.964844 105.863281 118.882812 105.746094 117.804688 C 105.414062 115.375 104.664062 113.003906 103.554688 110.8125 C 106.824219 109.941406 109.738281 107.839844 111.75 104.8125 C 112.257812 104.0625 112.679688 103.21875 113.039062 102.351562 C 113.789062 100.640625 114.300781 98.71875 114.539062 96.621094 C 114.839844 93.890625 114.78125 91.007812 114.359375 88.398438 C 113.789062 85.425781 112.050781 82.996094 109.496094 81.738281 C 108.296875 81.136719 106.976562 80.835938 105.59375 80.835938 C 104.335938 80.835938 103.222656 81.105469 102.351562 81.375 C 99.890625 77.445312 98.511719 72.792969 98.480469 67.84375 C 98.480469 61.632812 100.941406 55.332031 105.234375 50.558594 C 109.707031 45.578125 115.652344 42.757812 121.925781 42.609375 C 122.375 42.519531 122.828125 42.457031 123.308594 42.457031 L 123.667969 42.457031 L 124.058594 42.488281 C 137.988281 43.839844 148.132812 55.0625 147.652344 68.652344 Z M 147.652344 68.652344 " fill-opacity="1" fill-rule="nonzero"/></g><path fill="#ffffff" d="M 62.847656 77.027344 C 62.003906 77.925781 61.164062 78.796875 60.324219 79.695312 C 58.761719 81.316406 57.292969 82.847656 56 84.375 C 53.597656 87.289062 51.886719 89.929688 50.835938 92.449219 C 50.71875 92.777344 50.566406 93.109375 50.449219 93.4375 C 50.355469 91.9375 50.476562 90.347656 50.71875 88.636719 C 50.957031 87.167969 51.289062 85.847656 51.589844 84.675781 C 51.917969 83.417969 52.398438 81.496094 53.929688 79.726562 C 55.582031 77.777344 57.921875 76.695312 60.472656 76.695312 C 61.316406 76.726562 62.09375 76.84375 62.847656 77.027344 Z M 62.847656 77.027344 " fill-opacity="1" fill-rule="nonzero"/><path fill="#ffffff" d="M 68.039062 131.246094 C 66.75 131.695312 65.335938 132.054688 63.804688 132.054688 C 60.714844 132.054688 57.890625 130.707031 55.789062 128.1875 C 53.179688 125.035156 52.847656 121.644531 53.480469 118.613281 C 53.929688 119.515625 54.410156 120.355469 54.949219 121.164062 C 55.101562 121.34375 55.21875 121.496094 55.3125 121.675781 C 58.554688 125.363281 62.183594 128.304688 66.179688 130.347656 C 66.808594 130.644531 67.4375 130.945312 68.039062 131.246094 Z M 68.039062 131.246094 " fill-opacity="1" fill-rule="nonzero"/><path fill="#ffffff" d="M 105.925781 121.074219 C 105.714844 126.503906 103.101562 131.457031 98.78125 134.1875 C 96.617188 135.566406 94.277344 136.226562 91.785156 136.226562 C 89.472656 136.226562 87.101562 135.628906 84.730469 134.425781 C 87.164062 134.277344 89.292969 133.855469 91.273438 133.105469 C 97.039062 131.035156 102.082031 126.804688 105.925781 121.074219 Z M 105.925781 121.074219 " fill-opacity="1" fill-rule="nonzero"/><path fill="#ffffff" d="M 114.570312 96.648438 C 114.332031 98.75 113.820312 100.671875 113.070312 102.378906 C 113.699219 98.988281 114.121094 95.390625 114.332031 91.519531 C 109.316406 89.449219 105.144531 85.878906 102.351562 81.375 C 103.222656 81.105469 104.363281 80.835938 105.59375 80.835938 C 106.976562 80.835938 108.296875 81.136719 109.496094 81.738281 C 112.050781 82.996094 113.820312 85.425781 114.359375 88.398438 C 114.8125 91.007812 114.871094 93.917969 114.570312 96.648438 Z M 114.570312 96.648438 " fill-opacity="1" fill-rule="nonzero"/><path fill="#e0e8e8" d="M 117.964844 74.804688 C 118.503906 74.953125 118.742188 74.175781 118.203125 73.964844 C 115.683594 73.125 114.691406 70.09375 114.839844 67.632812 C 115.019531 64.84375 116.492188 62.082031 118.925781 60.640625 C 121.207031 59.292969 124.148438 59.203125 126.429688 60.671875 C 128.558594 62.023438 129.703125 64.871094 129.160156 67.332031 C 128.859375 68.683594 128.109375 69.792969 127.089844 70.695312 C 126.097656 71.59375 124.746094 72.222656 123.96875 73.335938 C 123.667969 73.785156 124.027344 74.503906 124.566406 74.445312 C 126.070312 74.324219 127.417969 73.304688 128.53125 72.375 C 129.730469 71.324219 130.691406 69.972656 131.171875 68.445312 C 132.191406 65.171875 130.992188 61.421875 128.199219 59.441406 C 125.558594 57.550781 121.867188 57.550781 118.984375 58.902344 C 115.953125 60.371094 114 63.523438 113.609375 66.824219 C 113.21875 69.972656 114.691406 73.90625 117.964844 74.804688 Z M 120.484375 68.984375 C 120.363281 72.132812 120.605469 75.34375 120.695312 78.464844 C 120.753906 80.777344 120.816406 83.085938 120.816406 85.367188 C 120.753906 85.398438 120.726562 85.425781 120.695312 85.457031 C 112.648438 83.566406 106.527344 76.457031 106.585938 67.875 C 106.644531 59.082031 114.152344 50.46875 123.335938 51.21875 C 123.488281 51.25 123.636719 51.21875 123.757812 51.160156 C 132.433594 52.359375 139.277344 59.351562 138.976562 68.414062 C 138.828125 73.003906 136.847656 77.414062 133.421875 80.476562 C 130.542969 82.996094 127 84.285156 123.308594 84.945312 C 123.277344 83.445312 123.246094 81.976562 123.21875 80.507812 C 123.097656 76.695312 122.976562 72.703125 122.285156 68.894531 C 122.347656 68.863281 122.40625 68.832031 122.4375 68.832031 C 122.4375 68.832031 122.4375 68.832031 122.4375 68.804688 C 122.796875 68.59375 123.097656 68.324219 123.308594 67.964844 C 123.546875 67.605469 123.667969 67.183594 123.667969 66.761719 C 123.636719 66.554688 123.636719 66.34375 123.605469 66.132812 C 123.515625 65.714844 123.308594 65.351562 123.007812 65.054688 C 122.796875 64.8125 122.527344 64.632812 122.226562 64.542969 C 121.957031 64.363281 121.625 64.304688 121.296875 64.304688 C 120.875 64.304688 120.453125 64.394531 120.066406 64.601562 C 119.882812 64.722656 119.703125 64.84375 119.554688 64.992188 C 119.523438 64.992188 119.523438 65.023438 119.496094 65.023438 C 119.253906 65.234375 119.074219 65.472656 118.984375 65.773438 C 118.863281 65.953125 118.804688 66.164062 118.804688 66.375 C 118.742188 66.703125 118.714844 67.003906 118.832031 67.332031 C 118.925781 67.511719 118.984375 67.695312 119.074219 67.902344 C 119.195312 68.082031 119.3125 68.234375 119.433594 68.414062 C 119.644531 68.652344 119.914062 68.832031 120.214844 68.921875 C 120.304688 68.921875 120.394531 68.953125 120.484375 68.984375 Z M 120.484375 68.984375 " fill-opacity="1" fill-rule="nonzero"/><path fill="#e0e8e8" d="M 15.804688 17.703125 C 16.074219 15.78125 17.695312 14.492188 19.527344 14.253906 C 20.214844 14.882812 21.148438 15.242188 21.777344 15.902344 C 22.46875 16.652344 22.738281 17.703125 22.617188 18.695312 C 22.5 19.652344 22.019531 20.433594 21.296875 20.972656 C 20.667969 21.484375 19.707031 21.722656 18.777344 21.695312 C 18.746094 21.695312 18.6875 21.664062 18.65625 21.664062 C 16.882812 21.574219 15.5625 19.535156 15.804688 17.703125 Z M 15.804688 17.703125 " fill-opacity="1" fill-rule="nonzero"/><path fill="#e0e8e8" d="M 77.316406 19.5625 C 78.007812 20.195312 78.9375 20.554688 79.566406 21.246094 C 80.257812 21.996094 80.558594 23.015625 80.40625 24.035156 C 80.289062 24.996094 79.808594 25.773438 79.085938 26.316406 C 78.457031 26.824219 77.496094 27.066406 76.566406 27.035156 C 76.503906 27.035156 76.476562 27.003906 76.445312 27.003906 C 74.675781 26.886719 73.351562 24.816406 73.625 23.015625 C 73.863281 21.09375 75.484375 19.804688 77.316406 19.5625 Z M 77.316406 19.5625 " fill-opacity="1" fill-rule="nonzero"/><path fill="#0097cd" d="M 25.199219 25.113281 C 23.21875 26.886719 20.636719 27.457031 18.144531 28.085938 C 18.085938 28.085938 18.085938 28.117188 18.054688 28.144531 C 13.523438 26.976562 10.039062 22.925781 10.101562 18.0625 C 10.160156 13.082031 14.394531 8.25 19.585938 8.703125 C 19.675781 8.703125 19.765625 8.671875 19.855469 8.671875 C 24.71875 9.390625 28.53125 13.292969 28.382812 18.332031 C 28.261719 20.914062 27.152344 23.375 25.199219 25.113281 Z M 19.855469 13.023438 C 18.65625 12.871094 17.425781 13.144531 16.402344 13.863281 C 15.171875 14.734375 14.363281 16.054688 14.121094 17.523438 C 13.671875 20.3125 15.382812 23.074219 18.085938 23.792969 C 18.234375 23.886719 18.414062 23.914062 18.566406 23.945312 C 21.6875 24.304688 24.480469 21.964844 24.808594 18.84375 C 24.988281 17.285156 24.449219 15.691406 23.398438 14.492188 C 22.617188 13.59375 21.148438 12.574219 19.855469 13.023438 Z M 19.855469 13.023438 " fill-opacity="1" fill-rule="nonzero"/><path fill="#0097cd" d="M 76.386719 29.253906 C 79.539062 29.617188 82.300781 27.246094 82.628906 24.15625 C 82.808594 22.59375 82.269531 21.003906 81.21875 19.804688 C 80.40625 18.875 78.90625 17.855469 77.644531 18.304688 C 76.445312 18.152344 75.214844 18.421875 74.195312 19.175781 C 72.960938 20.042969 72.152344 21.363281 71.910156 22.835938 C 71.460938 25.625 73.144531 28.386719 75.875 29.105469 C 76.054688 29.164062 76.203125 29.226562 76.386719 29.253906 Z M 75.84375 33.425781 C 71.3125 32.285156 67.828125 28.234375 67.890625 23.34375 C 67.949219 18.394531 72.183594 13.5625 77.375 13.984375 C 77.464844 14.011719 77.554688 13.984375 77.644531 13.953125 C 82.507812 14.671875 86.320312 18.574219 86.171875 23.613281 C 86.082031 26.195312 84.972656 28.6875 83.050781 30.394531 C 81.066406 32.167969 78.488281 32.707031 75.964844 33.335938 C 75.90625 33.367188 75.875 33.398438 75.84375 33.425781 Z M 75.84375 33.425781 " fill-opacity="1" fill-rule="nonzero"/><path fill="#e0e8e8" d="M 44.773438 71.953125 C 40.660156 71.835938 36.546875 70.964844 32.675781 69.523438 C 31.625 67.84375 30.484375 66.253906 29.253906 64.753906 C 31.324219 66.222656 33.664062 67.605469 36.097656 68.355469 C 39.910156 69.734375 44.441406 69.792969 48.253906 69.492188 C 52.546875 69.195312 56.902344 68.292969 60.863281 66.523438 C 59.753906 67.695312 58.671875 68.832031 57.5625 70.003906 C 56.570312 70.125 55.671875 70.515625 54.710938 70.785156 C 53.628906 71.054688 52.519531 71.324219 51.40625 71.503906 C 49.246094 71.863281 46.996094 72.015625 44.773438 71.953125 Z M 44.773438 71.953125 " fill-opacity="1" fill-rule="nonzero"/><path fill="#e0e8e8" d="M 55.972656 71.746094 C 53.269531 74.535156 50.539062 77.296875 48.164062 80.386719 C 45.882812 83.328125 43.933594 86.507812 42.582031 89.988281 C 42.523438 90.136719 42.460938 90.316406 42.402344 90.46875 C 42.371094 90.4375 42.371094 90.40625 42.34375 90.40625 C 42.011719 89.148438 41.589844 87.886719 41.109375 86.628906 C 42.523438 83.835938 44.113281 81.167969 46.125 78.765625 C 47.234375 77.445312 48.40625 76.246094 49.667969 75.105469 C 50.296875 74.535156 50.957031 74.023438 51.617188 73.484375 C 52.160156 73.066406 52.757812 72.734375 53.238281 72.253906 C 54.230469 72.074219 55.25 71.863281 56.179688 71.535156 C 56.121094 71.59375 56.0625 71.65625 55.972656 71.746094 Z M 55.972656 71.746094 " fill-opacity="1" fill-rule="nonzero"/><path fill="#e0e8e8" d="M 51.167969 72.792969 C 50.476562 73.304688 49.847656 73.84375 49.1875 74.414062 C 47.804688 75.613281 46.542969 76.933594 45.375 78.34375 C 43.511719 80.566406 41.921875 83.027344 40.78125 85.667969 C 39.699219 82.996094 38.46875 80.386719 37.296875 77.925781 C 36.15625 75.496094 34.867188 73.035156 33.425781 70.664062 C 37 72.074219 40.691406 72.855469 44.5625 72.972656 C 46.816406 73.066406 49.035156 72.914062 51.257812 72.554688 C 51.347656 72.554688 51.4375 72.523438 51.527344 72.523438 C 51.378906 72.613281 51.257812 72.703125 51.167969 72.792969 Z M 51.167969 72.792969 " fill-opacity="1" fill-rule="nonzero"/><path fill="#e52e2e" d="M 59.421875 86.355469 C 59.574219 85.578125 59.785156 84.40625 60.835938 84.558594 C 61.675781 84.675781 62.546875 85.367188 63.234375 85.789062 C 64.375 86.476562 65.425781 87.347656 66.566406 88.039062 C 67.738281 89.085938 68.730469 90.316406 69.300781 91.878906 C 70.382812 94.730469 69.601562 98.089844 66.628906 99.410156 C 63.714844 100.699219 60.65625 98.988281 59.394531 96.289062 C 57.984375 93.199219 58.761719 89.539062 59.421875 86.355469 Z M 59.421875 86.355469 " fill-opacity="1" fill-rule="nonzero"/><path fill="#e52e2e" d="M 81.21875 82.695312 C 81.789062 82.097656 82.328125 81.4375 82.960938 80.894531 C 83.738281 80.234375 84.429688 80.296875 85 81.167969 C 85.871094 82.488281 86.53125 84.078125 87.164062 85.546875 C 87.824219 87.109375 88.273438 88.757812 88.214844 90.4375 C 88.121094 93.410156 86.171875 96.257812 83.019531 96.410156 C 79.835938 96.558594 77.496094 93.890625 77.40625 90.859375 C 77.34375 88.726562 78.097656 86.957031 79.117188 85.277344 C 79.835938 84.4375 80.46875 83.535156 81.21875 82.695312 Z M 81.21875 82.695312 " fill-opacity="1" fill-rule="nonzero"/><path fill="#e52e2e" d="M 106.585938 91.789062 C 106.585938 92.777344 106.585938 93.738281 106.496094 94.730469 C 106.40625 96.320312 106.136719 97.941406 105.414062 99.378906 C 104.0625 102.082031 101.152344 103.941406 98.121094 102.742188 C 95.207031 101.601562 94.1875 98.300781 95.269531 95.539062 C 96.078125 93.4375 97.640625 92.089844 99.410156 91.007812 C 100.519531 90.558594 101.570312 90.019531 102.652344 89.566406 C 103.671875 89.148438 106.046875 87.859375 106.496094 89.597656 C 106.675781 90.257812 106.585938 91.066406 106.585938 91.789062 Z M 106.585938 91.789062 " fill-opacity="1" fill-rule="nonzero"/><path fill="#e52e2e" d="M 95.058594 114.832031 C 96.679688 118.074219 97.460938 122.515625 94.757812 125.425781 C 91.574219 128.847656 87.460938 125.335938 84.789062 123.113281 C 82.148438 120.953125 79.417969 119.363281 75.964844 119.09375 C 72.601562 118.824219 69.75 119.992188 66.867188 121.644531 C 65.066406 122.695312 62.605469 123.535156 62.367188 120.5625 C 62.214844 118.855469 63.027344 117.203125 63.898438 115.734375 C 64.015625 115.703125 64.136719 115.613281 64.195312 115.492188 C 67.257812 109.910156 73.050781 105.472656 79.566406 105.230469 C 86.203125 104.960938 92.117188 109.011719 95.058594 114.832031 Z M 95.058594 114.832031 " fill-opacity="1" fill-rule="nonzero"/><path fill="#232c33" d="M 118.953125 58.933594 C 121.835938 57.550781 125.527344 57.582031 128.171875 59.472656 C 130.960938 61.453125 132.164062 65.203125 131.140625 68.472656 C 130.660156 70.003906 129.703125 71.355469 128.5 72.40625 C 127.390625 73.363281 126.039062 74.386719 124.539062 74.476562 C 123.996094 74.535156 123.636719 73.816406 123.9375 73.363281 C 124.71875 72.253906 126.070312 71.65625 127.058594 70.722656 C 128.082031 69.824219 128.832031 68.683594 129.132812 67.363281 C 129.640625 64.902344 128.5 62.050781 126.398438 60.703125 C 124.148438 59.230469 121.175781 59.320312 118.894531 60.671875 C 116.460938 62.113281 114.992188 64.871094 114.8125 67.664062 C 114.660156 70.125 115.652344 73.15625 118.171875 73.996094 C 118.683594 74.175781 118.472656 74.984375 117.933594 74.835938 C 114.660156 73.90625 113.191406 69.972656 113.550781 66.882812 C 113.96875 63.550781 115.921875 60.402344 118.953125 58.933594 Z M 118.953125 58.933594 " fill-opacity="1" fill-rule="nonzero"/><path fill="#232c33" d="M 93.945312 94.640625 C 95.296875 91.667969 98.269531 89.597656 101.390625 88.578125 C 102.203125 88.21875 103.042969 87.886719 103.882812 87.585938 C 104.785156 87.289062 105.773438 87.046875 106.644531 87.496094 C 107.457031 87.886719 107.875 88.726562 108.027344 89.597656 C 108.355469 91.609375 108.386719 93.890625 108.148438 95.929688 C 107.9375 97.820312 107.425781 99.738281 106.375 101.332031 C 104.214844 104.601562 99.980469 106.042969 96.5 103.910156 C 93.347656 101.929688 92.445312 97.941406 93.945312 94.640625 Z M 99.410156 90.976562 C 97.640625 92.058594 96.078125 93.410156 95.269531 95.507812 C 94.1875 98.269531 95.207031 101.601562 98.121094 102.710938 C 101.152344 103.878906 104.0625 102.050781 105.414062 99.351562 C 106.136719 97.910156 106.40625 96.289062 106.496094 94.699219 C 106.554688 93.707031 106.585938 92.75 106.585938 91.757812 C 106.585938 91.039062 106.675781 90.226562 106.496094 89.539062 C 106.074219 87.828125 103.703125 89.117188 102.652344 89.507812 C 101.570312 89.988281 100.519531 90.527344 99.410156 90.976562 Z M 99.410156 90.976562 " fill-opacity="1" fill-rule="nonzero"/><path fill="#232c33" d="M 75.84375 90.917969 C 75.753906 87.675781 77.496094 84.527344 79.808594 82.246094 C 80.378906 81.554688 80.949219 80.894531 81.578125 80.265625 C 82.238281 79.574219 83.050781 78.914062 84.070312 78.914062 C 85 78.945312 85.722656 79.515625 86.230469 80.234375 C 87.433594 81.886719 88.421875 83.898438 89.144531 85.789062 C 89.835938 87.648438 90.195312 89.6875 89.925781 91.667969 C 89.382812 95.359375 86.441406 98.328125 82.570312 98.148438 C 78.667969 97.96875 75.933594 94.699219 75.84375 90.917969 Z M 79.085938 85.277344 C 78.066406 86.925781 77.316406 88.726562 77.375 90.859375 C 77.464844 93.890625 79.808594 96.558594 82.988281 96.410156 C 86.171875 96.257812 88.09375 93.4375 88.183594 90.4375 C 88.242188 88.757812 87.792969 87.109375 87.132812 85.546875 C 86.53125 84.078125 85.871094 82.488281 84.972656 81.167969 C 84.402344 80.296875 83.710938 80.234375 82.929688 80.894531 C 82.300781 81.4375 81.757812 82.097656 81.1875 82.695312 C 80.46875 83.535156 79.835938 84.4375 79.085938 85.277344 Z M 79.085938 85.277344 " fill-opacity="1" fill-rule="nonzero"/><path fill="#232c33" d="M 79.566406 21.214844 C 78.9375 20.523438 78.007812 20.164062 77.316406 19.535156 C 75.515625 19.773438 73.863281 21.09375 73.59375 22.984375 C 73.351562 24.785156 74.644531 26.855469 76.414062 26.976562 C 76.445312 26.976562 76.476562 27.003906 76.535156 27.003906 C 77.464844 27.035156 78.425781 26.796875 79.058594 26.285156 C 79.777344 25.746094 80.257812 24.964844 80.378906 24.003906 C 80.527344 23.015625 80.226562 21.996094 79.566406 21.214844 Z M 82.628906 24.15625 C 82.300781 27.246094 79.507812 29.617188 76.386719 29.253906 C 76.234375 29.226562 76.054688 29.164062 75.90625 29.074219 C 73.171875 28.386719 71.460938 25.59375 71.941406 22.804688 C 72.183594 21.335938 73.023438 20.015625 74.222656 19.144531 C 75.246094 18.421875 76.445312 18.152344 77.675781 18.273438 C 78.9375 17.824219 80.4375 18.84375 81.25 19.773438 C 82.269531 20.972656 82.808594 22.566406 82.628906 24.15625 Z M 82.628906 24.15625 " fill-opacity="1" fill-rule="nonzero"/><path fill="#232c33" d="M 70.859375 122.785156 C 67.738281 124.074219 63.714844 127.707031 60.714844 124.105469 C 58.042969 120.894531 60.835938 116.542969 62.695312 113.722656 C 65.097656 110.09375 68.128906 106.550781 72.09375 104.632812 C 72.242188 104.539062 72.390625 104.601562 72.511719 104.691406 C 75.695312 103.070312 79.328125 102.378906 83.050781 102.921875 C 90.945312 104.089844 98.359375 110.601562 99.441406 118.671875 C 99.949219 122.453125 98.71875 126.65625 95.359375 128.785156 C 91.457031 131.246094 87.253906 128.964844 84.101562 126.386719 C 82.117188 124.765625 80.289062 123.085938 77.796875 122.394531 C 75.542969 121.734375 73.054688 121.882812 70.859375 122.785156 Z M 62.367188 120.535156 C 62.605469 123.503906 65.039062 122.664062 66.867188 121.613281 C 69.75 119.964844 72.574219 118.792969 75.964844 119.0625 C 79.417969 119.332031 82.179688 120.925781 84.789062 123.085938 C 87.460938 125.304688 91.574219 128.816406 94.757812 125.394531 C 97.460938 122.484375 96.679688 118.042969 95.058594 114.804688 C 92.117188 108.980469 86.203125 104.929688 79.566406 105.171875 C 73.050781 105.410156 67.257812 109.851562 64.195312 115.433594 C 64.136719 115.582031 63.988281 115.644531 63.898438 115.671875 C 63.027344 117.203125 62.214844 118.855469 62.367188 120.535156 Z M 62.367188 120.535156 " fill-opacity="1" fill-rule="nonzero"/><path fill="#232c33" d="M 65.367188 85.515625 C 68.371094 87.289062 70.921875 90.136719 71.3125 93.648438 C 71.730469 97.308594 69.300781 100.941406 65.546875 101.511719 C 61.585938 102.109375 58.371094 99.441406 57.292969 95.75 C 56.722656 93.769531 56.75 91.636719 57.050781 89.597656 C 57.230469 88.457031 57.503906 87.316406 57.800781 86.175781 C 58.011719 85.367188 58.222656 84.527344 58.792969 83.867188 C 60.203125 82.214844 62.277344 83.476562 63.6875 84.375 C 64.257812 84.796875 64.828125 85.15625 65.367188 85.515625 Z M 59.394531 96.289062 C 60.625 99.019531 63.714844 100.699219 66.628906 99.410156 C 69.601562 98.089844 70.382812 94.730469 69.300781 91.878906 C 68.699219 90.316406 67.710938 89.117188 66.566406 88.039062 C 65.425781 87.347656 64.375 86.476562 63.234375 85.789062 C 62.546875 85.367188 61.675781 84.675781 60.835938 84.558594 C 59.785156 84.4375 59.605469 85.605469 59.421875 86.355469 C 58.761719 89.539062 57.984375 93.199219 59.394531 96.289062 Z M 59.394531 96.289062 " fill-opacity="1" fill-rule="nonzero"/><path fill="#232c33" d="M 21.777344 15.933594 C 21.148438 15.242188 20.214844 14.914062 19.527344 14.28125 C 17.726562 14.523438 16.074219 15.84375 15.804688 17.734375 C 15.5625 19.535156 16.882812 21.574219 18.625 21.722656 C 18.65625 21.722656 18.714844 21.753906 18.746094 21.753906 C 19.675781 21.785156 20.636719 21.542969 21.265625 21.035156 C 21.988281 20.464844 22.46875 19.714844 22.589844 18.753906 C 22.738281 17.703125 22.46875 16.683594 21.777344 15.933594 Z M 16.402344 13.863281 C 17.425781 13.144531 18.625 12.871094 19.855469 13.023438 C 21.117188 12.574219 22.617188 13.59375 23.429688 14.523438 C 24.480469 15.691406 25.019531 17.285156 24.839844 18.875 C 24.507812 21.964844 21.71875 24.335938 18.59375 23.976562 C 18.414062 23.945312 18.265625 23.914062 18.117188 23.824219 C 15.382812 23.074219 13.671875 20.3125 14.121094 17.523438 C 14.394531 16.054688 15.203125 14.734375 16.402344 13.863281 Z M 16.402344 13.863281 " fill-opacity="1" fill-rule="nonzero"/><path fill="#232c33" d="M 51.226562 72.585938 C 49.007812 72.914062 46.785156 73.066406 44.535156 73.003906 C 40.660156 72.882812 36.96875 72.105469 33.394531 70.695312 C 34.835938 73.066406 36.128906 75.523438 37.269531 77.957031 C 38.4375 80.417969 39.699219 83.027344 40.75 85.695312 C 41.921875 83.054688 43.511719 80.597656 45.34375 78.375 C 46.515625 76.964844 47.777344 75.644531 49.15625 74.445312 C 49.785156 73.875 50.449219 73.363281 51.136719 72.824219 C 51.257812 72.734375 51.378906 72.644531 51.46875 72.554688 C 51.40625 72.554688 51.316406 72.554688 51.226562 72.585938 Z M 54.742188 70.785156 C 55.699219 70.515625 56.601562 70.125 57.59375 70.003906 C 58.703125 68.832031 59.785156 67.695312 60.894531 66.523438 C 56.933594 68.261719 52.578125 69.164062 48.285156 69.492188 C 44.472656 69.792969 39.941406 69.734375 36.128906 68.355469 C 33.726562 67.601562 31.355469 66.222656 29.28125 64.753906 C 30.515625 66.253906 31.65625 67.875 32.707031 69.523438 C 36.578125 70.964844 40.691406 71.863281 44.804688 71.953125 C 47.023438 72.015625 49.246094 71.863281 51.4375 71.503906 C 52.546875 71.324219 53.628906 71.054688 54.742188 70.785156 Z M 56.179688 71.535156 C 55.25 71.863281 54.230469 72.074219 53.238281 72.253906 C 52.757812 72.734375 52.160156 73.066406 51.617188 73.484375 C 50.957031 74.023438 50.296875 74.535156 49.667969 75.105469 C 48.40625 76.246094 47.207031 77.445312 46.125 78.765625 C 44.113281 81.167969 42.550781 83.835938 41.109375 86.628906 C 41.589844 87.859375 41.980469 89.117188 42.34375 90.40625 C 42.371094 90.4375 42.402344 90.4375 42.402344 90.46875 C 42.460938 90.316406 42.523438 90.136719 42.582031 89.988281 C 43.933594 86.539062 45.882812 83.328125 48.164062 80.386719 C 50.539062 77.324219 53.300781 74.566406 55.972656 71.746094 C 56.0625 71.65625 56.121094 71.59375 56.179688 71.535156 Z M 18.144531 28.054688 C 20.667969 27.425781 23.21875 26.855469 25.199219 25.085938 C 27.152344 23.375 28.261719 20.914062 28.324219 18.304688 C 28.472656 13.234375 24.660156 9.332031 19.796875 8.640625 C 19.707031 8.640625 19.644531 8.671875 19.527344 8.671875 C 14.332031 8.222656 10.101562 13.050781 10.039062 18.035156 C 9.980469 22.894531 13.460938 26.945312 17.996094 28.117188 C 18.085938 28.085938 18.117188 28.054688 18.144531 28.054688 Z M 67.890625 23.34375 C 67.828125 28.234375 71.3125 32.257812 75.84375 33.425781 C 75.875 33.398438 75.90625 33.367188 75.933594 33.367188 C 78.457031 32.738281 81.007812 32.195312 83.019531 30.425781 C 84.972656 28.714844 86.082031 26.226562 86.140625 23.644531 C 86.292969 18.605469 82.480469 14.703125 77.617188 13.984375 C 77.527344 14.011719 77.464844 14.042969 77.34375 14.011719 C 72.210938 13.5625 67.949219 18.394531 67.890625 23.34375 Z M 120.695312 78.464844 C 120.605469 75.34375 120.363281 72.132812 120.484375 68.984375 C 120.394531 68.953125 120.304688 68.921875 120.246094 68.894531 C 119.945312 68.804688 119.703125 68.625 119.464844 68.382812 C 119.34375 68.234375 119.222656 68.054688 119.105469 67.875 C 119.015625 67.695312 118.953125 67.511719 118.863281 67.304688 C 118.742188 66.972656 118.773438 66.671875 118.832031 66.34375 C 118.832031 66.132812 118.894531 65.921875 119.015625 65.742188 C 119.105469 65.441406 119.285156 65.203125 119.523438 64.992188 C 119.554688 64.964844 119.554688 64.964844 119.585938 64.964844 C 119.734375 64.8125 119.882812 64.691406 120.09375 64.574219 C 120.453125 64.363281 120.875 64.273438 121.324219 64.273438 C 121.65625 64.273438 121.957031 64.332031 122.257812 64.511719 C 122.554688 64.601562 122.796875 64.78125 123.035156 65.023438 C 123.335938 65.324219 123.546875 65.683594 123.636719 66.101562 C 123.667969 66.3125 123.667969 66.523438 123.695312 66.734375 C 123.695312 67.152344 123.578125 67.574219 123.335938 67.933594 C 123.125 68.292969 122.828125 68.59375 122.464844 68.773438 C 122.464844 68.804688 122.464844 68.804688 122.464844 68.804688 C 122.40625 68.832031 122.375 68.832031 122.316406 68.863281 C 123.007812 72.675781 123.125 76.664062 123.246094 80.476562 C 123.308594 81.976562 123.335938 83.445312 123.335938 84.917969 C 127.03125 84.226562 130.570312 82.964844 133.453125 80.445312 C 136.90625 77.386719 138.886719 72.972656 139.007812 68.382812 C 139.308594 59.351562 132.464844 52.359375 123.789062 51.128906 C 123.667969 51.191406 123.515625 51.21875 123.367188 51.191406 C 114.179688 50.46875 106.675781 59.050781 106.617188 67.84375 C 106.527344 76.425781 112.679688 83.535156 120.726562 85.425781 C 120.753906 85.398438 120.816406 85.367188 120.84375 85.335938 C 120.816406 83.085938 120.753906 80.777344 120.695312 78.464844 Z M 123.398438 48.878906 C 133.542969 49.839844 141.621094 58 141.257812 68.445312 C 140.957031 77.234375 133.753906 86.117188 124.808594 86.6875 C 124.746094 86.867188 124.566406 87.046875 124.296875 87.046875 C 123.96875 87.046875 123.636719 87.046875 123.308594 87.015625 C 123.277344 89.539062 123.21875 92.058594 123.035156 94.578125 C 122.074219 108.472656 117.84375 122.933594 107.726562 132.988281 C 103.164062 137.515625 97.398438 140.878906 91.183594 142.527344 C 87.011719 143.640625 82.269531 144.148438 77.976562 143.097656 C 76.535156 142.917969 75.09375 142.707031 73.652344 142.378906 C 69.628906 141.507812 65.636719 140.039062 62.066406 137.96875 C 59.125 136.289062 56.421875 134.21875 53.960938 131.90625 C 51.796875 130.765625 49.847656 128.003906 48.644531 126.355469 C 46.574219 123.476562 44.984375 120.203125 43.871094 116.8125 C 42.042969 111.230469 41.5 105.351562 41.472656 99.46875 C 41.019531 98.210938 40.960938 96.828125 41.109375 95.390625 C 40.269531 93.109375 39.699219 90.738281 38.917969 88.367188 C 37.839844 85.097656 36.757812 81.828125 35.285156 78.707031 C 32.34375 72.585938 28.414062 67.125 24.839844 61.363281 C 24.808594 61.300781 24.808594 61.242188 24.808594 61.183594 C 22.5 58.992188 20.457031 56.5 18.867188 53.769531 C 16.613281 49.871094 15.292969 45.519531 14.84375 41.078125 C 14.453125 37.085938 14.691406 32.648438 16.914062 29.195312 C 12.050781 27.84375 8.417969 23.34375 8.390625 18.003906 C 8.359375 12.152344 13.132812 6.453125 19.167969 6.480469 C 19.316406 6.421875 19.464844 6.359375 19.644531 6.390625 C 25.859375 6.929688 30.8125 11.972656 30.574219 18.363281 C 30.453125 21.515625 29.101562 24.574219 26.730469 26.675781 C 25.019531 28.207031 22.707031 29.40625 20.398438 29.464844 C 20.308594 29.496094 20.246094 29.527344 20.15625 29.527344 C 19.496094 29.554688 18.835938 29.496094 18.175781 29.375 C 18.234375 33.1875 17.664062 36.96875 18.023438 40.75 C 18.414062 44.738281 19.675781 48.667969 21.6875 52.121094 C 23.667969 55.511719 26.402344 58.453125 29.464844 60.941406 C 31.023438 62.234375 32.734375 63.34375 34.507812 64.304688 C 35.886719 65.054688 37.386719 65.59375 38.800781 66.285156 C 39.339844 66.402344 39.851562 66.523438 40.390625 66.613281 C 43.09375 67.035156 45.914062 67.0625 48.644531 66.824219 C 53.839844 66.402344 59.09375 64.992188 63.507812 62.203125 C 68.1875 59.230469 71.371094 54.699219 73.113281 49.449219 C 74.703125 44.617188 74.945312 39.546875 76.023438 34.625 C 70.472656 33.847656 66.238281 29.015625 66.207031 23.226562 C 66.179688 17.375 70.953125 11.671875 76.984375 11.703125 C 77.136719 11.640625 77.285156 11.582031 77.4375 11.613281 C 83.648438 12.183594 88.601562 17.195312 88.394531 23.585938 C 88.273438 26.734375 86.921875 29.824219 84.550781 31.925781 C 82.839844 33.425781 80.527344 34.625 78.1875 34.6875 C 78.125 34.71875 78.035156 34.746094 77.945312 34.746094 C 77.585938 34.746094 77.226562 34.746094 76.867188 34.71875 C 78.90625 45.609375 74.195312 58.421875 64.738281 64.421875 C 64.558594 64.542969 64.347656 64.632812 64.136719 64.753906 C 60.894531 70.574219 55.3125 75.136719 51.078125 80.175781 C 48.617188 83.117188 46.394531 86.355469 44.921875 89.898438 C 44.261719 91.519531 43.722656 93.230469 43.332031 94.96875 C 43.273438 95.359375 43.183594 95.75 43.121094 96.140625 C 43.121094 96.527344 43.152344 96.890625 43.152344 97.28125 C 43.121094 97.429688 43.0625 97.578125 42.914062 97.667969 C 42.882812 98 42.820312 98.300781 42.761719 98.628906 C 43.003906 104.179688 43.542969 109.730469 45.164062 115.011719 C 46.183594 118.375 47.59375 121.644531 49.578125 124.585938 C 49.785156 124.886719 50.027344 125.183594 50.238281 125.484375 C 53.871094 129.714844 58.222656 133.316406 63.207031 135.898438 C 66.808594 137.757812 70.652344 139.199219 74.644531 140.039062 C 75.964844 140.308594 77.285156 140.488281 78.605469 140.636719 C 83.589844 140.96875 88.453125 140.816406 93.40625 139.019531 C 105.804688 134.515625 113.789062 123.175781 117.511719 110.960938 C 119.613281 104.03125 120.515625 96.890625 120.753906 89.6875 C 120.785156 88.667969 120.753906 87.648438 120.785156 86.628906 C 111.777344 85.066406 104.875 77.207031 104.875 67.722656 C 104.875 58.089844 112.800781 48.640625 122.828125 48.910156 C 123.007812 48.910156 123.1875 48.851562 123.398438 48.878906 Z M 123.398438 48.878906 " fill-opacity="1" fill-rule="nonzero"/></svg>