<svg xmlns="http://www.w3.org/2000/svg" xmlns:xlink="http://www.w3.org/1999/xlink" width="200" zoomAndPan="magnify" viewBox="0 0 150 149.999998" height="200" preserveAspectRatio="xMidYMid meet" version="1.0"><defs><clipPath id="567d5670f6"><path d="M 36 111 L 142 111 L 142 150 L 36 150 Z M 36 111 " clip-rule="nonzero"/></clipPath><clipPath id="4047e15498"><path d="M 0 75.003906 C 0 72.546875 0.121094 70.097656 0.359375 67.652344 C 0.601562 65.207031 0.960938 62.78125 1.441406 60.371094 C 1.921875 57.964844 2.515625 55.582031 3.230469 53.230469 C 3.941406 50.882812 4.769531 48.570312 5.710938 46.300781 C 6.648438 44.03125 7.699219 41.8125 8.855469 39.648438 C 10.015625 37.480469 11.277344 35.378906 12.640625 33.335938 C 14.003906 31.292969 15.46875 29.320312 17.023438 27.421875 C 18.582031 25.523438 20.230469 23.707031 21.96875 21.96875 C 23.707031 20.230469 25.523438 18.582031 27.421875 17.023438 C 29.320312 15.46875 31.292969 14.003906 33.335938 12.640625 C 35.378906 11.277344 37.480469 10.015625 39.648438 8.855469 C 41.8125 7.699219 44.03125 6.648438 46.300781 5.710938 C 48.570312 4.769531 50.882812 3.941406 53.230469 3.230469 C 55.582031 2.515625 57.964844 1.921875 60.371094 1.441406 C 62.78125 0.960938 65.207031 0.601562 67.652344 0.359375 C 70.097656 0.121094 72.546875 0 75.003906 0 C 77.460938 0 79.914062 0.121094 82.355469 0.359375 C 84.800781 0.601562 87.230469 0.960938 89.636719 1.441406 C 92.046875 1.921875 94.425781 2.515625 96.777344 3.230469 C 99.128906 3.941406 101.4375 4.769531 103.707031 5.710938 C 105.976562 6.648438 108.195312 7.699219 110.363281 8.855469 C 112.527344 10.015625 114.632812 11.277344 116.675781 12.640625 C 118.71875 14.003906 120.6875 15.46875 122.585938 17.023438 C 124.488281 18.582031 126.304688 20.230469 128.042969 21.96875 C 129.777344 23.707031 131.425781 25.523438 132.984375 27.421875 C 134.542969 29.320312 136.003906 31.292969 137.371094 33.335938 C 138.734375 35.378906 139.996094 37.480469 141.152344 39.648438 C 142.3125 41.8125 143.359375 44.03125 144.300781 46.300781 C 145.242188 48.570312 146.066406 50.882812 146.78125 53.230469 C 147.492188 55.582031 148.089844 57.964844 148.570312 60.371094 C 149.046875 62.78125 149.410156 65.207031 149.648438 67.652344 C 149.890625 70.097656 150.011719 72.546875 150.011719 75.003906 C 150.011719 77.460938 149.890625 79.914062 149.648438 82.355469 C 149.410156 84.800781 149.046875 87.230469 148.570312 89.636719 C 148.089844 92.046875 147.492188 94.425781 146.78125 96.777344 C 146.066406 99.128906 145.242188 101.4375 144.300781 103.707031 C 143.359375 105.976562 142.3125 108.195312 141.152344 110.363281 C 139.996094 112.527344 138.734375 114.632812 137.371094 116.675781 C 136.003906 118.71875 134.542969 120.6875 132.984375 122.585938 C 131.425781 124.488281 129.777344 126.304688 128.042969 128.042969 C 126.304688 129.777344 124.488281 131.425781 122.585938 132.984375 C 120.6875 134.542969 118.71875 136.003906 116.675781 137.371094 C 114.632812 138.734375 112.527344 139.996094 110.363281 141.152344 C 108.195312 142.3125 105.976562 143.359375 103.707031 144.300781 C 101.4375 145.242188 99.128906 146.066406 96.777344 146.78125 C 94.425781 147.492188 92.046875 148.089844 89.636719 148.570312 C 87.230469 149.046875 84.800781 149.410156 82.355469 149.648438 C 79.914062 149.890625 77.460938 150.011719 75.003906 150.011719 C 72.546875 150.011719 70.097656 149.890625 67.652344 149.648438 C 65.207031 149.410156 62.78125 149.046875 60.371094 148.570312 C 57.964844 148.089844 55.582031 147.492188 53.230469 146.78125 C 50.882812 146.066406 48.570312 145.242188 46.300781 144.300781 C 44.03125 143.359375 41.8125 142.3125 39.648438 141.152344 C 37.480469 139.996094 35.378906 138.734375 33.335938 137.371094 C 31.292969 136.003906 29.320312 134.542969 27.421875 132.984375 C 25.523438 131.425781 23.707031 129.777344 21.96875 128.042969 C 20.230469 126.304688 18.582031 124.488281 17.023438 122.585938 C 15.46875 120.6875 14.003906 118.71875 12.640625 116.675781 C 11.277344 114.632812 10.015625 112.527344 8.855469 110.363281 C 7.699219 108.195312 6.648438 105.976562 5.710938 103.707031 C 4.769531 101.4375 3.941406 99.128906 3.230469 96.777344 C 2.515625 94.425781 1.921875 92.046875 1.441406 89.636719 C 0.960938 87.230469 0.601562 84.800781 0.359375 82.355469 C 0.121094 79.914062 0 77.460938 0 75.003906 Z M 0 75.003906 " clip-rule="nonzero"/></clipPath></defs><path fill="#e9e9e9" d="M 150.011719 75.003906 C 150.011719 76.234375 149.980469 77.460938 149.917969 78.683594 C 149.859375 79.910156 149.769531 81.136719 149.648438 82.355469 C 149.527344 83.578125 149.378906 84.796875 149.199219 86.011719 C 149.019531 87.226562 148.808594 88.433594 148.570312 89.636719 C 148.328125 90.84375 148.0625 92.039062 147.761719 93.230469 C 147.464844 94.421875 147.136719 95.601562 146.78125 96.777344 C 146.425781 97.953125 146.039062 99.117188 145.625 100.273438 C 145.210938 101.429688 144.769531 102.574219 144.300781 103.707031 C 143.832031 104.84375 143.332031 105.964844 142.808594 107.074219 C 142.285156 108.183594 141.730469 109.28125 141.152344 110.363281 C 140.574219 111.445312 139.96875 112.511719 139.339844 113.566406 C 138.707031 114.617188 138.050781 115.65625 137.371094 116.675781 C 136.6875 117.695312 135.980469 118.699219 135.25 119.6875 C 134.519531 120.671875 133.761719 121.640625 132.984375 122.585938 C 132.207031 123.535156 131.40625 124.464844 130.582031 125.375 C 129.757812 126.285156 128.910156 127.171875 128.042969 128.042969 C 127.171875 128.910156 126.285156 129.757812 125.375 130.582031 C 124.464844 131.40625 123.535156 132.207031 122.585938 132.984375 C 121.640625 133.761719 120.671875 134.519531 119.6875 135.25 C 118.699219 135.980469 117.695312 136.6875 116.675781 137.371094 C 115.65625 138.050781 114.617188 138.707031 113.566406 139.339844 C 112.511719 139.96875 111.445312 140.574219 110.363281 141.152344 C 109.28125 141.730469 108.183594 142.285156 107.074219 142.808594 C 105.964844 143.332031 104.84375 143.832031 103.707031 144.300781 C 102.574219 144.769531 101.429688 145.210938 100.273438 145.625 C 99.117188 146.039062 97.953125 146.425781 96.777344 146.78125 C 95.601562 147.136719 94.421875 147.464844 93.230469 147.761719 C 92.039062 148.0625 90.84375 148.328125 89.636719 148.570312 C 88.433594 148.808594 87.226562 149.019531 86.011719 149.199219 C 84.796875 149.378906 83.578125 149.527344 82.355469 149.648438 C 81.136719 149.769531 79.910156 149.859375 78.683594 149.917969 C 77.460938 149.980469 76.234375 150.011719 75.003906 150.011719 C 73.777344 150.011719 72.550781 149.980469 71.324219 149.917969 C 70.097656 149.859375 68.875 149.769531 67.652344 149.648438 C 66.433594 149.527344 65.214844 149.378906 64 149.199219 C 62.785156 149.019531 61.578125 148.808594 60.371094 148.570312 C 59.167969 148.328125 57.972656 148.0625 56.78125 147.761719 C 55.589844 147.464844 54.40625 147.136719 53.230469 146.78125 C 52.058594 146.425781 50.890625 146.039062 49.738281 145.625 C 48.582031 145.210938 47.4375 144.769531 46.300781 144.300781 C 45.167969 143.832031 44.046875 143.332031 42.9375 142.808594 C 41.828125 142.285156 40.730469 141.730469 39.648438 141.152344 C 38.566406 140.574219 37.496094 139.96875 36.445312 139.339844 C 35.390625 138.707031 34.355469 138.050781 33.335938 137.371094 C 32.3125 136.6875 31.3125 135.980469 30.324219 135.25 C 29.339844 134.519531 28.371094 133.761719 27.421875 132.984375 C 26.472656 132.207031 25.542969 131.40625 24.632812 130.582031 C 23.726562 129.757812 22.835938 128.910156 21.96875 128.042969 C 21.101562 127.171875 20.253906 126.285156 19.429688 125.375 C 18.605469 124.464844 17.804688 123.535156 17.023438 122.585938 C 16.246094 121.640625 15.492188 120.671875 14.761719 119.6875 C 14.027344 118.699219 13.324219 117.695312 12.640625 116.675781 C 11.957031 115.65625 11.300781 114.617188 10.671875 113.566406 C 10.039062 112.511719 9.433594 111.445312 8.855469 110.363281 C 8.277344 109.28125 7.726562 108.183594 7.203125 107.074219 C 6.675781 105.964844 6.179688 104.84375 5.710938 103.707031 C 5.238281 102.574219 4.796875 101.429688 4.382812 100.273438 C 3.972656 99.117188 3.585938 97.953125 3.230469 96.777344 C 2.875 95.601562 2.546875 94.421875 2.246094 93.230469 C 1.949219 92.039062 1.679688 90.84375 1.441406 89.636719 C 1.203125 88.433594 0.992188 87.226562 0.8125 86.011719 C 0.632812 84.796875 0.480469 83.578125 0.359375 82.355469 C 0.242188 81.136719 0.152344 79.910156 0.0898438 78.683594 C 0.03125 77.460938 0 76.234375 0 75.003906 C 0 73.777344 0.03125 72.550781 0.0898438 71.324219 C 0.152344 70.097656 0.242188 68.875 0.359375 67.652344 C 0.480469 66.433594 0.632812 65.214844 0.8125 64 C 0.992188 62.785156 1.203125 61.578125 1.441406 60.371094 C 1.679688 59.167969 1.949219 57.972656 2.246094 56.78125 C 2.546875 55.589844 2.875 54.40625 3.230469 53.230469 C 3.585938 52.058594 3.972656 50.890625 4.382812 49.738281 C 4.796875 48.582031 5.238281 47.4375 5.710938 46.300781 C 6.179688 45.167969 6.675781 44.046875 7.203125 42.9375 C 7.726562 41.828125 8.277344 40.730469 8.855469 39.648438 C 9.433594 38.566406 10.039062 37.496094 10.671875 36.445312 C 11.300781 35.390625 11.957031 34.355469 12.640625 33.335938 C 13.324219 32.3125 14.027344 31.3125 14.761719 30.324219 C 15.492188 29.339844 16.246094 28.371094 17.023438 27.421875 C 17.804688 26.472656 18.605469 25.542969 19.429688 24.632812 C 20.253906 23.726562 21.101562 22.835938 21.96875 21.96875 C 22.835938 21.101562 23.726562 20.253906 24.632812 19.429688 C 25.542969 18.605469 26.472656 17.804688 27.421875 17.023438 C 28.371094 16.246094 29.339844 15.492188 30.324219 14.761719 C 31.3125 14.027344 32.3125 13.324219 33.335938 12.640625 C 34.355469 11.957031 35.390625 11.300781 36.445312 10.671875 C 37.496094 10.039062 38.566406 9.433594 39.648438 8.855469 C 40.730469 8.277344 41.828125 7.726562 42.9375 7.203125 C 44.046875 6.675781 45.167969 6.179688 46.300781 5.710938 C 47.4375 5.238281 48.582031 4.796875 49.738281 4.382812 C 50.890625 3.972656 52.058594 3.585938 53.230469 3.230469 C 54.40625 2.875 55.589844 2.546875 56.78125 2.246094 C 57.972656 1.949219 59.167969 1.679688 60.371094 1.441406 C 61.578125 1.203125 62.785156 0.992188 64 0.8125 C 65.214844 0.632812 66.433594 0.480469 67.652344 0.359375 C 68.875 0.242188 70.097656 0.152344 71.324219 0.0898438 C 72.550781 0.03125 73.777344 0 75.003906 0 C 76.234375 0 77.460938 0.03125 78.683594 0.0898438 C 79.910156 0.152344 81.136719 0.242188 82.355469 0.359375 C 83.578125 0.480469 84.796875 0.632812 86.011719 0.8125 C 87.226562 0.992188 88.433594 1.203125 89.636719 1.441406 C 90.84375 1.679688 92.039062 1.949219 93.230469 2.246094 C 94.421875 2.546875 95.601562 2.875 96.777344 3.230469 C 97.953125 3.585938 99.117188 3.972656 100.273438 4.382812 C 101.429688 4.796875 102.574219 5.238281 103.707031 5.710938 C 104.84375 6.179688 105.964844 6.675781 107.074219 7.203125 C 108.183594 7.726562 109.28125 8.277344 110.363281 8.855469 C 111.445312 9.433594 112.511719 10.039062 113.566406 10.671875 C 114.617188 11.300781 115.65625 11.957031 116.675781 12.640625 C 117.695312 13.324219 118.699219 14.027344 119.6875 14.761719 C 120.671875 15.492188 121.640625 16.246094 122.585938 17.023438 C 123.535156 17.804688 124.464844 18.605469 125.375 19.429688 C 126.285156 20.253906 127.171875 21.101562 128.042969 21.96875 C 128.910156 22.835938 129.757812 23.726562 130.582031 24.632812 C 131.40625 25.542969 132.207031 26.472656 132.984375 27.421875 C 133.761719 28.371094 134.519531 29.339844 135.25 30.324219 C 135.980469 31.3125 136.6875 32.3125 137.371094 33.335938 C 138.050781 34.355469 138.707031 35.390625 139.339844 36.445312 C 139.96875 37.496094 140.574219 38.566406 141.152344 39.648438 C 141.730469 40.730469 142.285156 41.828125 142.808594 42.9375 C 143.332031 44.046875 143.832031 45.167969 144.300781 46.300781 C 144.769531 47.4375 145.210938 48.582031 145.625 49.738281 C 146.039062 50.890625 146.425781 52.058594 146.78125 53.230469 C 147.136719 54.40625 147.464844 55.589844 147.761719 56.78125 C 148.0625 57.972656 148.328125 59.167969 148.570312 60.371094 C 148.808594 61.578125 149.019531 62.785156 149.199219 64 C 149.378906 65.214844 149.527344 66.433594 149.648438 67.652344 C 149.769531 68.875 149.859375 70.097656 149.917969 71.324219 C 149.980469 72.550781 150.011719 73.777344 150.011719 75.003906 Z M 150.011719 75.003906 " fill-opacity="1" fill-rule="nonzero"/><path fill="#9df4e6" d="M 150.011719 75.003906 C 150.011719 76.234375 149.980469 77.460938 149.917969 78.683594 C 149.859375 79.910156 149.769531 81.136719 149.648438 82.355469 C 149.527344 83.578125 149.378906 84.796875 149.199219 86.011719 C 149.019531 87.226562 148.808594 88.433594 148.570312 89.636719 C 148.328125 90.84375 148.0625 92.039062 147.761719 93.230469 C 147.464844 94.421875 147.136719 95.601562 146.78125 96.777344 C 146.425781 97.953125 146.039062 99.117188 145.625 100.273438 C 145.210938 101.429688 144.769531 102.574219 144.300781 103.707031 C 143.832031 104.84375 143.332031 105.964844 142.808594 107.074219 C 142.285156 108.183594 141.730469 109.28125 141.152344 110.363281 C 140.574219 111.445312 139.96875 112.511719 139.339844 113.566406 C 138.707031 114.617188 138.050781 115.65625 137.371094 116.675781 C 136.6875 117.695312 135.980469 118.699219 135.25 119.6875 C 134.519531 120.671875 133.761719 121.640625 132.984375 122.585938 C 132.207031 123.535156 131.40625 124.464844 130.582031 125.375 C 129.757812 126.285156 128.910156 127.171875 128.042969 128.042969 C 127.171875 128.910156 126.285156 129.757812 125.375 130.582031 C 124.464844 131.40625 123.535156 132.207031 122.585938 132.984375 C 121.640625 133.761719 120.671875 134.519531 119.6875 135.25 C 118.699219 135.980469 117.695312 136.6875 116.675781 137.371094 C 115.65625 138.050781 114.617188 138.707031 113.566406 139.339844 C 112.511719 139.96875 111.445312 140.574219 110.363281 141.152344 C 109.28125 141.730469 108.183594 142.285156 107.074219 142.808594 C 105.964844 143.332031 104.84375 143.832031 103.707031 144.300781 C 102.574219 144.769531 101.429688 145.210938 100.273438 145.625 C 99.117188 146.039062 97.953125 146.425781 96.777344 146.78125 C 95.601562 147.136719 94.421875 147.464844 93.230469 147.761719 C 92.039062 148.0625 90.84375 148.328125 89.636719 148.570312 C 88.433594 148.808594 87.226562 149.019531 86.011719 149.199219 C 84.796875 149.378906 83.578125 149.527344 82.355469 149.648438 C 81.136719 149.769531 79.910156 149.859375 78.683594 149.917969 C 77.460938 149.980469 76.234375 150.011719 75.003906 150.011719 C 73.777344 150.011719 72.550781 149.980469 71.324219 149.917969 C 70.097656 149.859375 68.875 149.769531 67.652344 149.648438 C 66.433594 149.527344 65.214844 149.378906 64 149.199219 C 62.785156 149.019531 61.578125 148.808594 60.371094 148.570312 C 59.167969 148.328125 57.972656 148.0625 56.78125 147.761719 C 55.589844 147.464844 54.40625 147.136719 53.230469 146.78125 C 52.058594 146.425781 50.890625 146.039062 49.738281 145.625 C 48.582031 145.210938 47.4375 144.769531 46.300781 144.300781 C 45.167969 143.832031 44.046875 143.332031 42.9375 142.808594 C 41.828125 142.285156 40.730469 141.730469 39.648438 141.152344 C 38.566406 140.574219 37.496094 139.96875 36.445312 139.339844 C 35.390625 138.707031 34.355469 138.050781 33.335938 137.371094 C 32.3125 136.6875 31.3125 135.980469 30.324219 135.25 C 29.339844 134.519531 28.371094 133.761719 27.421875 132.984375 C 26.472656 132.207031 25.542969 131.40625 24.632812 130.582031 C 23.726562 129.757812 22.835938 128.910156 21.96875 128.042969 C 21.101562 127.171875 20.253906 126.285156 19.429688 125.375 C 18.605469 124.464844 17.804688 123.535156 17.023438 122.585938 C 16.246094 121.640625 15.492188 120.671875 14.761719 119.6875 C 14.027344 118.699219 13.324219 117.695312 12.640625 116.675781 C 11.957031 115.65625 11.300781 114.617188 10.671875 113.566406 C 10.039062 112.511719 9.433594 111.445312 8.855469 110.363281 C 8.277344 109.28125 7.726562 108.183594 7.203125 107.074219 C 6.675781 105.964844 6.179688 104.84375 5.710938 103.707031 C 5.238281 102.574219 4.796875 101.429688 4.382812 100.273438 C 3.972656 99.117188 3.585938 97.953125 3.230469 96.777344 C 2.875 95.601562 2.546875 94.421875 2.246094 93.230469 C 1.949219 92.039062 1.679688 90.84375 1.441406 89.636719 C 1.203125 88.433594 0.992188 87.226562 0.8125 86.011719 C 0.632812 84.796875 0.480469 83.578125 0.359375 82.355469 C 0.242188 81.136719 0.152344 79.910156 0.0898438 78.683594 C 0.03125 77.460938 0 76.234375 0 75.003906 C 0 73.777344 0.03125 72.550781 0.0898438 71.324219 C 0.152344 70.097656 0.242188 68.875 0.359375 67.652344 C 0.480469 66.433594 0.632812 65.214844 0.8125 64 C 0.992188 62.785156 1.203125 61.578125 1.441406 60.371094 C 1.679688 59.167969 1.949219 57.972656 2.246094 56.78125 C 2.546875 55.589844 2.875 54.40625 3.230469 53.230469 C 3.585938 52.058594 3.972656 50.890625 4.382812 49.738281 C 4.796875 48.582031 5.238281 47.4375 5.710938 46.300781 C 6.179688 45.167969 6.675781 44.046875 7.203125 42.9375 C 7.726562 41.828125 8.277344 40.730469 8.855469 39.648438 C 9.433594 38.566406 10.039062 37.496094 10.671875 36.445312 C 11.300781 35.390625 11.957031 34.355469 12.640625 33.335938 C 13.324219 32.3125 14.027344 31.3125 14.761719 30.324219 C 15.492188 29.339844 16.246094 28.371094 17.023438 27.421875 C 17.804688 26.472656 18.605469 25.542969 19.429688 24.632812 C 20.253906 23.726562 21.101562 22.835938 21.96875 21.96875 C 22.835938 21.101562 23.726562 20.253906 24.632812 19.429688 C 25.542969 18.605469 26.472656 17.804688 27.421875 17.023438 C 28.371094 16.246094 29.339844 15.492188 30.324219 14.761719 C 31.3125 14.027344 32.3125 13.324219 33.335938 12.640625 C 34.355469 11.957031 35.390625 11.300781 36.445312 10.671875 C 37.496094 10.039062 38.566406 9.433594 39.648438 8.855469 C 40.730469 8.277344 41.828125 7.726562 42.9375 7.203125 C 44.046875 6.675781 45.167969 6.179688 46.300781 5.710938 C 47.4375 5.238281 48.582031 4.796875 49.738281 4.382812 C 50.890625 3.972656 52.058594 3.585938 53.230469 3.230469 C 54.40625 2.875 55.589844 2.546875 56.78125 2.246094 C 57.972656 1.949219 59.167969 1.679688 60.371094 1.441406 C 61.578125 1.203125 62.785156 0.992188 64 0.8125 C 65.214844 0.632812 66.433594 0.480469 67.652344 0.359375 C 68.875 0.242188 70.097656 0.152344 71.324219 0.0898438 C 72.550781 0.03125 73.777344 0 75.003906 0 C 76.234375 0 77.460938 0.03125 78.683594 0.0898438 C 79.910156 0.152344 81.136719 0.242188 82.355469 0.359375 C 83.578125 0.480469 84.796875 0.632812 86.011719 0.8125 C 87.226562 0.992188 88.433594 1.203125 89.636719 1.441406 C 90.84375 1.679688 92.039062 1.949219 93.230469 2.246094 C 94.421875 2.546875 95.601562 2.875 96.777344 3.230469 C 97.953125 3.585938 99.117188 3.972656 100.273438 4.382812 C 101.429688 4.796875 102.574219 5.238281 103.707031 5.710938 C 104.84375 6.179688 105.964844 6.675781 107.074219 7.203125 C 108.183594 7.726562 109.28125 8.277344 110.363281 8.855469 C 111.445312 9.433594 112.511719 10.039062 113.566406 10.671875 C 114.617188 11.300781 115.65625 11.957031 116.675781 12.640625 C 117.695312 13.324219 118.699219 14.027344 119.6875 14.761719 C 120.671875 15.492188 121.640625 16.246094 122.585938 17.023438 C 123.535156 17.804688 124.464844 18.605469 125.375 19.429688 C 126.285156 20.253906 127.171875 21.101562 128.042969 21.96875 C 128.910156 22.835938 129.757812 23.726562 130.582031 24.632812 C 131.40625 25.542969 132.207031 26.472656 132.984375 27.421875 C 133.761719 28.371094 134.519531 29.339844 135.25 30.324219 C 135.980469 31.3125 136.6875 32.3125 137.371094 33.335938 C 138.050781 34.355469 138.707031 35.390625 139.339844 36.445312 C 139.96875 37.496094 140.574219 38.566406 141.152344 39.648438 C 141.730469 40.730469 142.285156 41.828125 142.808594 42.9375 C 143.332031 44.046875 143.832031 45.167969 144.300781 46.300781 C 144.769531 47.4375 145.210938 48.582031 145.625 49.738281 C 146.039062 50.890625 146.425781 52.058594 146.78125 53.230469 C 147.136719 54.40625 147.464844 55.589844 147.761719 56.78125 C 148.0625 57.972656 148.328125 59.167969 148.570312 60.371094 C 148.808594 61.578125 149.019531 62.785156 149.199219 64 C 149.378906 65.214844 149.527344 66.433594 149.648438 67.652344 C 149.769531 68.875 149.859375 70.097656 149.917969 71.324219 C 149.980469 72.550781 150.011719 73.777344 150.011719 75.003906 Z M 150.011719 75.003906 " fill-opacity="1" fill-rule="nonzero"/><g clip-path="url(#567d5670f6)"><g clip-path="url(#4047e15498)"><path fill="#ffc089" d="M 141.476562 152.429688 C 141.476562 153.769531 141.394531 155.101562 141.222656 156.433594 C 141.054688 157.761719 140.800781 159.082031 140.464844 160.394531 C 140.128906 161.707031 139.710938 163 139.210938 164.28125 C 138.707031 165.558594 138.128906 166.816406 137.46875 168.050781 C 136.808594 169.289062 136.070312 170.496094 135.257812 171.671875 C 134.445312 172.851562 133.558594 173.996094 132.601562 175.109375 C 131.644531 176.222656 130.617188 177.292969 129.523438 178.328125 C 128.429688 179.359375 127.269531 180.351562 126.050781 181.296875 C 124.832031 182.242188 123.554688 183.136719 122.222656 183.984375 C 120.886719 184.832031 119.503906 185.628906 118.070312 186.371094 C 116.636719 187.113281 115.15625 187.800781 113.636719 188.429688 C 112.113281 189.0625 110.558594 189.632812 108.964844 190.144531 C 107.371094 190.65625 105.75 191.105469 104.097656 191.492188 C 102.445312 191.882812 100.777344 192.207031 99.082031 192.464844 C 97.390625 192.726562 95.6875 192.921875 93.972656 193.054688 C 92.253906 193.183594 90.535156 193.25 88.808594 193.25 C 87.082031 193.25 85.363281 193.183594 83.644531 193.054688 C 81.929688 192.921875 80.226562 192.726562 78.53125 192.464844 C 76.839844 192.207031 75.171875 191.882812 73.519531 191.492188 C 71.867188 191.105469 70.246094 190.65625 68.652344 190.144531 C 67.058594 189.632812 65.5 189.0625 63.980469 188.429688 C 62.460938 187.800781 60.980469 187.113281 59.546875 186.371094 C 58.113281 185.628906 56.730469 184.832031 55.394531 183.984375 C 54.0625 183.136719 52.785156 182.242188 51.566406 181.296875 C 50.347656 180.351562 49.1875 179.359375 48.09375 178.328125 C 47 177.292969 45.972656 176.222656 45.015625 175.109375 C 44.058594 173.996094 43.171875 172.851562 42.359375 171.671875 C 41.546875 170.496094 40.808594 169.289062 40.148438 168.050781 C 39.488281 166.816406 38.90625 165.558594 38.40625 164.28125 C 37.90625 163 37.488281 161.707031 37.152344 160.394531 C 36.816406 159.082031 36.5625 157.761719 36.394531 156.433594 C 36.222656 155.101562 36.140625 153.769531 36.140625 152.429688 C 36.140625 151.09375 36.222656 149.761719 36.394531 148.429688 C 36.5625 147.101562 36.816406 145.777344 37.152344 144.46875 C 37.488281 143.15625 37.90625 141.863281 38.40625 140.582031 C 38.90625 139.300781 39.488281 138.046875 40.148438 136.808594 C 40.808594 135.574219 41.546875 134.367188 42.359375 133.1875 C 43.171875 132.011719 44.058594 130.863281 45.015625 129.753906 C 45.972656 128.640625 47 127.570312 48.09375 126.535156 C 49.1875 125.503906 50.347656 124.511719 51.566406 123.566406 C 52.785156 122.621094 54.0625 121.726562 55.394531 120.878906 C 56.730469 120.027344 58.113281 119.234375 59.546875 118.492188 C 60.980469 117.75 62.460938 117.0625 63.980469 116.429688 C 65.5 115.800781 67.058594 115.230469 68.652344 114.71875 C 70.246094 114.207031 71.867188 113.757812 73.519531 113.371094 C 75.171875 112.980469 76.839844 112.65625 78.53125 112.394531 C 80.226562 112.136719 81.929688 111.9375 83.644531 111.808594 C 85.363281 111.675781 87.082031 111.613281 88.808594 111.613281 C 90.535156 111.613281 92.253906 111.675781 93.972656 111.808594 C 95.6875 111.9375 97.390625 112.136719 99.082031 112.394531 C 100.777344 112.65625 102.445312 112.980469 104.097656 113.371094 C 105.75 113.757812 107.371094 114.207031 108.964844 114.71875 C 110.558594 115.230469 112.113281 115.800781 113.636719 116.429688 C 115.15625 117.0625 116.636719 117.75 118.070312 118.492188 C 119.503906 119.234375 120.886719 120.027344 122.222656 120.878906 C 123.554688 121.726562 124.832031 122.621094 126.050781 123.566406 C 127.269531 124.511719 128.429688 125.503906 129.523438 126.535156 C 130.617188 127.570312 131.644531 128.640625 132.601562 129.753906 C 133.558594 130.863281 134.445312 132.011719 135.257812 133.1875 C 136.070312 134.367188 136.808594 135.574219 137.46875 136.808594 C 138.128906 138.046875 138.707031 139.300781 139.210938 140.582031 C 139.710938 141.863281 140.128906 143.15625 140.464844 144.46875 C 140.800781 145.777344 141.054688 147.101562 141.222656 148.429688 C 141.394531 149.761719 141.476562 151.09375 141.476562 152.429688 Z M 141.476562 152.429688 " fill-opacity="1" fill-rule="nonzero"/></g></g><path fill="#d37a7a" d="M 72.964844 91.605469 L 87.558594 91.605469 C 88.035156 91.605469 88.492188 91.695312 88.933594 91.878906 C 89.375 92.0625 89.765625 92.320312 90.101562 92.660156 C 90.441406 92.996094 90.699219 93.386719 90.882812 93.828125 C 91.066406 94.269531 91.15625 94.726562 91.15625 95.203125 L 91.15625 113.421875 C 91.15625 114.136719 91.085938 114.847656 90.949219 115.546875 C 90.808594 116.25 90.601562 116.929688 90.328125 117.589844 C 90.054688 118.253906 89.71875 118.878906 89.320312 119.476562 C 88.921875 120.070312 88.472656 120.621094 87.964844 121.125 C 87.460938 121.632812 86.910156 122.082031 86.316406 122.480469 C 85.71875 122.878906 85.089844 123.214844 84.429688 123.488281 C 83.769531 123.761719 83.089844 123.96875 82.386719 124.109375 C 81.683594 124.246094 80.976562 124.316406 80.261719 124.316406 C 79.546875 124.316406 78.835938 124.246094 78.136719 124.109375 C 77.433594 123.96875 76.753906 123.761719 76.089844 123.488281 C 75.429688 123.214844 74.800781 122.878906 74.207031 122.480469 C 73.613281 122.085938 73.0625 121.632812 72.554688 121.125 C 72.050781 120.621094 71.597656 120.070312 71.203125 119.476562 C 70.804688 118.878906 70.46875 118.253906 70.195312 117.59375 C 69.921875 116.929688 69.714844 116.25 69.574219 115.546875 C 69.433594 114.847656 69.363281 114.136719 69.363281 113.421875 L 69.363281 95.203125 C 69.363281 94.726562 69.457031 94.269531 69.640625 93.828125 C 69.820312 93.386719 70.082031 92.996094 70.417969 92.660156 C 70.757812 92.320312 71.144531 92.0625 71.585938 91.878906 C 72.027344 91.695312 72.488281 91.605469 72.964844 91.605469 Z M 72.964844 91.605469 " fill-opacity="1" fill-rule="nonzero"/><path fill="#e58b89" d="M 55.820312 79.253906 C 55.820312 79.65625 55.78125 80.054688 55.699219 80.449219 C 55.621094 80.84375 55.503906 81.230469 55.351562 81.601562 C 55.195312 81.972656 55.007812 82.328125 54.785156 82.660156 C 54.558594 82.996094 54.304688 83.308594 54.019531 83.59375 C 53.734375 83.878906 53.425781 84.132812 53.089844 84.355469 C 52.753906 84.578125 52.402344 84.769531 52.027344 84.921875 C 51.65625 85.078125 51.273438 85.191406 50.878906 85.273438 C 50.484375 85.351562 50.082031 85.390625 49.679688 85.390625 C 46.289062 85.390625 43.542969 81.339844 43.542969 77.949219 C 43.542969 74.558594 46.289062 73.113281 49.679688 73.113281 C 50.082031 73.113281 50.484375 73.152344 50.878906 73.230469 C 51.273438 73.308594 51.65625 73.425781 52.03125 73.582031 C 52.402344 73.734375 52.753906 73.925781 53.089844 74.148438 C 53.425781 74.371094 53.734375 74.625 54.019531 74.910156 C 54.304688 75.195312 54.558594 75.507812 54.785156 75.839844 C 55.007812 76.175781 55.195312 76.53125 55.351562 76.902344 C 55.503906 77.273438 55.621094 77.660156 55.699219 78.054688 C 55.78125 78.449219 55.820312 78.847656 55.820312 79.253906 Z M 55.820312 79.253906 " fill-opacity="1" fill-rule="nonzero"/><path fill="#e58b89" d="M 109.359375 78.230469 C 109.359375 81.816406 106.453125 86.101562 102.867188 86.101562 C 102.445312 86.09375 102.027344 86.050781 101.613281 85.960938 C 101.199219 85.875 100.796875 85.75 100.40625 85.582031 C 100.019531 85.417969 99.648438 85.214844 99.296875 84.976562 C 98.949219 84.742188 98.625 84.472656 98.328125 84.171875 C 98.03125 83.867188 97.765625 83.542969 97.53125 83.1875 C 97.296875 82.835938 97.101562 82.464844 96.941406 82.074219 C 96.78125 81.683594 96.660156 81.277344 96.578125 80.863281 C 96.496094 80.449219 96.453125 80.03125 96.453125 79.605469 C 96.453125 79.183594 96.496094 78.765625 96.578125 78.351562 C 96.660156 77.933594 96.78125 77.53125 96.941406 77.140625 C 97.101562 76.75 97.296875 76.378906 97.53125 76.023438 C 97.765625 75.671875 98.03125 75.34375 98.328125 75.042969 C 98.625 74.742188 98.949219 74.472656 99.296875 74.234375 C 99.648438 74 100.019531 73.796875 100.40625 73.632812 C 100.796875 73.464844 101.199219 73.339844 101.613281 73.253906 C 102.027344 73.164062 102.445312 73.117188 102.867188 73.113281 C 106.453125 73.113281 109.359375 74.644531 109.359375 78.230469 Z M 109.359375 78.230469 " fill-opacity="1" fill-rule="nonzero"/><path fill="#fda297" d="M 75.648438 113.589844 C 53.539062 116.425781 48.746094 82.105469 48.4375 69.066406 C 48.078125 54.039062 60.621094 41.851562 75.648438 41.851562 C 90.675781 41.851562 103.222656 54.039062 102.859375 69.066406 C 102.542969 82.105469 100.6875 110.378906 75.648438 113.589844 Z M 75.648438 113.589844 " fill-opacity="1" fill-rule="nonzero"/><path fill="#18008b" d="M 49.113281 77.804688 C 49.113281 77.804688 44.003906 60.871094 45.609375 53.828125 C 47.214844 46.789062 55.503906 35.648438 74.621094 35.648438 C 94.40625 35.648438 100.097656 49.730469 102.867188 55.789062 C 105.636719 61.851562 102.179688 79.605469 102.179688 79.605469 C 102.179688 79.605469 99.398438 62.207031 95.476562 57.304688 C 91.554688 52.402344 70.777344 46.878906 70.515625 46.878906 C 70.253906 46.878906 50.683594 57.480469 50.683594 57.480469 Z M 49.113281 77.804688 " fill-opacity="1" fill-rule="nonzero"/><path fill="#18008b" d="M 61.585938 78.140625 C 61.585938 78.496094 61.550781 78.839844 61.488281 79.171875 C 61.421875 79.5 61.332031 79.792969 61.210938 80.042969 C 61.089844 80.296875 60.953125 80.492188 60.796875 80.628906 C 60.636719 80.765625 60.476562 80.835938 60.304688 80.835938 C 60.136719 80.835938 59.972656 80.765625 59.816406 80.628906 C 59.660156 80.492188 59.519531 80.296875 59.402344 80.042969 C 59.28125 79.792969 59.1875 79.5 59.121094 79.171875 C 59.058594 78.839844 59.027344 78.496094 59.027344 78.140625 C 59.027344 77.78125 59.058594 77.4375 59.121094 77.109375 C 59.1875 76.777344 59.28125 76.488281 59.402344 76.234375 C 59.519531 75.980469 59.660156 75.785156 59.816406 75.648438 C 59.972656 75.511719 60.136719 75.445312 60.304688 75.445312 C 60.476562 75.445312 60.636719 75.511719 60.796875 75.648438 C 60.953125 75.785156 61.089844 75.980469 61.210938 76.234375 C 61.332031 76.488281 61.421875 76.777344 61.488281 77.109375 C 61.550781 77.4375 61.585938 77.78125 61.585938 78.140625 Z M 61.585938 78.140625 " fill-opacity="1" fill-rule="nonzero"/><path fill="#18008b" d="M 80.949219 78.140625 C 80.949219 78.496094 80.917969 78.839844 80.851562 79.171875 C 80.785156 79.5 80.695312 79.792969 80.574219 80.042969 C 80.453125 80.296875 80.316406 80.492188 80.160156 80.628906 C 80.003906 80.765625 79.839844 80.835938 79.667969 80.835938 C 79.5 80.835938 79.335938 80.765625 79.179688 80.628906 C 79.023438 80.492188 78.882812 80.296875 78.765625 80.042969 C 78.644531 79.792969 78.550781 79.5 78.488281 79.171875 C 78.421875 78.839844 78.390625 78.496094 78.390625 78.140625 C 78.390625 77.78125 78.421875 77.4375 78.488281 77.109375 C 78.550781 76.777344 78.644531 76.488281 78.765625 76.234375 C 78.882812 75.980469 79.023438 75.785156 79.179688 75.648438 C 79.335938 75.511719 79.5 75.445312 79.667969 75.445312 C 79.839844 75.445312 80.003906 75.511719 80.160156 75.648438 C 80.316406 75.785156 80.453125 75.980469 80.574219 76.234375 C 80.695312 76.488281 80.785156 76.777344 80.851562 77.109375 C 80.917969 77.4375 80.949219 77.78125 80.949219 78.140625 Z M 80.949219 78.140625 " fill-opacity="1" fill-rule="nonzero"/><path fill="#18008b" d="M 70.59375 94.363281 C 70.570312 94.367188 70.542969 94.367188 70.519531 94.363281 C 69.917969 94.363281 69.355469 94.214844 68.835938 93.910156 C 68.316406 93.609375 67.90625 93.195312 67.605469 92.675781 C 66.574219 90.625 68.277344 87.675781 68.472656 87.347656 C 68.582031 87.171875 68.738281 87.058594 68.941406 87.011719 C 69.144531 86.960938 69.335938 86.992188 69.511719 87.097656 C 69.691406 87.207031 69.804688 87.359375 69.859375 87.5625 C 69.914062 87.761719 69.886719 87.953125 69.785156 88.132812 C 69.398438 88.78125 68.417969 90.882812 68.972656 91.984375 C 69.066406 92.164062 69.339844 92.703125 70.667969 92.839844 C 70.867188 92.863281 71.03125 92.953125 71.160156 93.105469 C 71.289062 93.261719 71.347656 93.4375 71.339844 93.636719 C 71.328125 93.835938 71.253906 94.007812 71.109375 94.148438 C 70.964844 94.285156 70.792969 94.359375 70.59375 94.363281 Z M 70.59375 94.363281 " fill-opacity="1" fill-rule="nonzero"/><path fill="#18008b" d="M 54.289062 74.597656 C 54.121094 74.597656 53.972656 74.546875 53.835938 74.449219 C 53.703125 74.351562 53.609375 74.222656 53.558594 74.0625 C 53.511719 73.902344 53.511719 73.742188 53.566406 73.585938 C 53.621094 73.425781 53.714844 73.300781 53.851562 73.203125 C 53.984375 73.113281 57.136719 70.988281 62.390625 72.101562 C 62.589844 72.148438 62.746094 72.261719 62.855469 72.4375 C 62.96875 72.613281 63 72.800781 62.957031 73.003906 C 62.914062 73.207031 62.808594 73.363281 62.636719 73.480469 C 62.464844 73.59375 62.277344 73.636719 62.074219 73.597656 C 60.835938 73.273438 59.585938 73.183594 58.316406 73.332031 C 57.042969 73.484375 55.847656 73.859375 54.71875 74.464844 C 54.589844 74.554688 54.445312 74.597656 54.289062 74.597656 Z M 54.289062 74.597656 " fill-opacity="1" fill-rule="nonzero"/><path fill="#18008b" d="M 85.6875 74.597656 C 85.53125 74.597656 85.386719 74.554688 85.253906 74.464844 C 84.128906 73.859375 82.929688 73.484375 81.660156 73.332031 C 80.390625 73.183594 79.136719 73.273438 77.902344 73.597656 C 77.691406 73.648438 77.496094 73.617188 77.3125 73.503906 C 77.128906 73.386719 77.015625 73.222656 76.972656 73.011719 C 76.925781 72.800781 76.964844 72.605469 77.085938 72.425781 C 77.207031 72.25 77.371094 72.140625 77.585938 72.101562 C 82.839844 70.988281 85.988281 73.113281 86.121094 73.203125 C 86.261719 73.300781 86.355469 73.425781 86.410156 73.585938 C 86.464844 73.742188 86.46875 73.902344 86.417969 74.0625 C 86.367188 74.222656 86.277344 74.351562 86.140625 74.449219 C 86.007812 74.550781 85.855469 74.597656 85.6875 74.597656 Z M 85.6875 74.597656 " fill-opacity="1" fill-rule="nonzero"/><path fill="#18008b" d="M 75 102.773438 C 74.789062 102.773438 74.609375 102.699219 74.457031 102.550781 C 74.308594 102.398438 74.234375 102.21875 74.234375 102.007812 C 74.234375 101.796875 74.308594 101.617188 74.457031 101.46875 C 74.609375 101.316406 74.789062 101.242188 75 101.242188 C 75.3125 101.242188 75.613281 101.183594 75.90625 101.0625 C 76.195312 100.941406 76.449219 100.773438 76.671875 100.550781 C 76.894531 100.328125 77.0625 100.074219 77.183594 99.785156 C 77.304688 99.492188 77.363281 99.191406 77.363281 98.878906 C 77.355469 98.664062 77.429688 98.476562 77.578125 98.320312 C 77.730469 98.164062 77.914062 98.085938 78.128906 98.085938 C 78.347656 98.085938 78.53125 98.164062 78.679688 98.320312 C 78.832031 98.476562 78.902344 98.664062 78.894531 98.878906 C 78.894531 99.394531 78.792969 99.890625 78.597656 100.367188 C 78.398438 100.84375 78.117188 101.265625 77.753906 101.632812 C 77.386719 101.996094 76.964844 102.277344 76.488281 102.476562 C 76.011719 102.671875 75.515625 102.773438 75 102.773438 Z M 75 102.773438 " fill-opacity="1" fill-rule="nonzero"/><path fill="#ffffff" d="M 56.453125 87.417969 C 55.71875 87.417969 54.988281 87.34375 54.265625 87.203125 C 53.542969 87.058594 52.839844 86.84375 52.160156 86.5625 C 51.476562 86.28125 50.832031 85.933594 50.21875 85.523438 C 49.605469 85.117188 49.039062 84.648438 48.515625 84.128906 C 47.996094 83.609375 47.53125 83.039062 47.121094 82.429688 C 46.710938 81.816406 46.367188 81.167969 46.082031 80.488281 C 45.800781 79.804688 45.589844 79.105469 45.445312 78.382812 C 45.300781 77.660156 45.230469 76.929688 45.230469 76.191406 C 45.230469 75.453125 45.300781 74.722656 45.445312 74 C 45.589844 73.277344 45.800781 72.578125 46.082031 71.894531 C 46.367188 71.214844 46.710938 70.566406 47.121094 69.953125 C 47.53125 69.34375 47.996094 68.773438 48.515625 68.253906 C 49.039062 67.734375 49.605469 67.265625 50.21875 66.859375 C 50.832031 66.449219 51.476562 66.101562 52.160156 65.820312 C 52.839844 65.539062 53.542969 65.324219 54.265625 65.183594 C 54.988281 65.039062 55.71875 64.964844 56.453125 64.964844 C 57.191406 64.964844 57.921875 65.039062 58.644531 65.183594 C 59.367188 65.324219 60.070312 65.539062 60.75 65.820312 C 61.433594 66.101562 62.078125 66.449219 62.691406 66.859375 C 63.304688 67.265625 63.871094 67.734375 64.390625 68.253906 C 64.914062 68.773438 65.378906 69.34375 65.789062 69.953125 C 66.199219 70.566406 66.542969 71.214844 66.824219 71.894531 C 67.109375 72.578125 67.320312 73.277344 67.464844 74 C 67.609375 74.722656 67.679688 75.453125 67.679688 76.191406 C 67.679688 76.929688 67.605469 77.65625 67.460938 78.378906 C 67.316406 79.101562 67.105469 79.804688 66.824219 80.484375 C 66.539062 81.164062 66.195312 81.8125 65.785156 82.425781 C 65.375 83.039062 64.910156 83.605469 64.386719 84.125 C 63.867188 84.644531 63.300781 85.113281 62.6875 85.519531 C 62.074219 85.929688 61.429688 86.277344 60.75 86.558594 C 60.066406 86.839844 59.367188 87.054688 58.644531 87.199219 C 57.921875 87.34375 57.191406 87.417969 56.453125 87.417969 Z M 56.453125 66.496094 C 55.816406 66.496094 55.1875 66.558594 54.5625 66.683594 C 53.9375 66.808594 53.332031 66.992188 52.746094 67.234375 C 52.15625 67.480469 51.597656 67.777344 51.066406 68.132812 C 50.539062 68.484375 50.050781 68.886719 49.597656 69.335938 C 49.148438 69.785156 48.746094 70.277344 48.394531 70.804688 C 48.039062 71.335938 47.742188 71.894531 47.496094 72.484375 C 47.253906 73.070312 47.070312 73.675781 46.945312 74.300781 C 46.820312 74.925781 46.757812 75.554688 46.757812 76.191406 C 46.757812 76.828125 46.820312 77.460938 46.945312 78.085938 C 47.070312 78.707031 47.253906 79.316406 47.496094 79.902344 C 47.742188 80.492188 48.039062 81.050781 48.394531 81.578125 C 48.746094 82.109375 49.148438 82.597656 49.597656 83.050781 C 50.050781 83.5 50.539062 83.902344 51.070312 84.253906 C 51.597656 84.609375 52.15625 84.90625 52.746094 85.152344 C 53.332031 85.394531 53.941406 85.578125 54.5625 85.703125 C 55.1875 85.828125 55.820312 85.886719 56.457031 85.886719 C 57.09375 85.886719 57.722656 85.824219 58.347656 85.703125 C 58.972656 85.578125 59.578125 85.394531 60.164062 85.148438 C 60.753906 84.90625 61.3125 84.609375 61.84375 84.253906 C 62.371094 83.898438 62.859375 83.5 63.3125 83.046875 C 63.761719 82.597656 64.164062 82.109375 64.515625 81.578125 C 64.871094 81.050781 65.167969 80.492188 65.414062 79.902344 C 65.65625 79.3125 65.839844 78.707031 65.964844 78.082031 C 66.089844 77.457031 66.152344 76.828125 66.152344 76.191406 C 66.148438 75.554688 66.085938 74.925781 65.960938 74.300781 C 65.839844 73.675781 65.652344 73.070312 65.410156 72.484375 C 65.164062 71.894531 64.867188 71.335938 64.511719 70.808594 C 64.160156 70.277344 63.757812 69.789062 63.308594 69.339844 C 62.859375 68.886719 62.367188 68.488281 61.839844 68.132812 C 61.308594 67.78125 60.75 67.480469 60.164062 67.238281 C 59.574219 66.992188 58.96875 66.808594 58.347656 66.683594 C 57.722656 66.558594 57.089844 66.496094 56.453125 66.496094 Z M 56.453125 66.496094 " fill-opacity="1" fill-rule="nonzero"/><path fill="#ffffff" d="M 83.519531 87.417969 C 82.78125 87.417969 82.050781 87.34375 81.328125 87.203125 C 80.605469 87.058594 79.90625 86.84375 79.222656 86.5625 C 78.542969 86.28125 77.894531 85.933594 77.28125 85.523438 C 76.671875 85.117188 76.101562 84.648438 75.582031 84.128906 C 75.0625 83.609375 74.59375 83.039062 74.1875 82.429688 C 73.777344 81.816406 73.429688 81.167969 73.148438 80.488281 C 72.867188 79.804688 72.652344 79.105469 72.507812 78.382812 C 72.367188 77.660156 72.292969 76.929688 72.292969 76.191406 C 72.292969 75.453125 72.367188 74.722656 72.507812 74 C 72.652344 73.277344 72.867188 72.578125 73.148438 71.894531 C 73.429688 71.214844 73.777344 70.566406 74.1875 69.953125 C 74.59375 69.34375 75.0625 68.773438 75.582031 68.253906 C 76.101562 67.734375 76.671875 67.265625 77.28125 66.859375 C 77.894531 66.449219 78.542969 66.101562 79.222656 65.820312 C 79.90625 65.539062 80.605469 65.324219 81.328125 65.183594 C 82.050781 65.039062 82.78125 64.964844 83.519531 64.964844 C 84.257812 64.964844 84.988281 65.039062 85.710938 65.183594 C 86.433594 65.324219 87.132812 65.539062 87.816406 65.820312 C 88.496094 66.101562 89.144531 66.449219 89.757812 66.859375 C 90.367188 67.265625 90.9375 67.734375 91.457031 68.253906 C 91.976562 68.773438 92.445312 69.34375 92.851562 69.953125 C 93.261719 70.566406 93.609375 71.214844 93.890625 71.894531 C 94.171875 72.578125 94.386719 73.277344 94.527344 74 C 94.671875 74.722656 94.746094 75.453125 94.746094 76.191406 C 94.742188 76.929688 94.671875 77.65625 94.527344 78.378906 C 94.382812 79.101562 94.167969 79.804688 93.886719 80.484375 C 93.605469 81.167969 93.257812 81.8125 92.847656 82.425781 C 92.441406 83.039062 91.972656 83.605469 91.453125 84.125 C 90.933594 84.648438 90.367188 85.113281 89.753906 85.519531 C 89.140625 85.929688 88.492188 86.277344 87.8125 86.558594 C 87.132812 86.839844 86.429688 87.054688 85.707031 87.199219 C 84.984375 87.34375 84.257812 87.417969 83.519531 87.417969 Z M 83.519531 66.496094 C 82.882812 66.496094 82.253906 66.558594 81.628906 66.683594 C 81.003906 66.808594 80.398438 66.992188 79.808594 67.234375 C 79.222656 67.480469 78.660156 67.777344 78.132812 68.132812 C 77.601562 68.484375 77.113281 68.886719 76.664062 69.335938 C 76.214844 69.785156 75.8125 70.277344 75.457031 70.804688 C 75.105469 71.335938 74.804688 71.894531 74.5625 72.484375 C 74.316406 73.070312 74.132812 73.675781 74.011719 74.300781 C 73.886719 74.925781 73.824219 75.554688 73.824219 76.191406 C 73.824219 76.828125 73.886719 77.460938 74.011719 78.085938 C 74.132812 78.707031 74.316406 79.316406 74.5625 79.902344 C 74.804688 80.492188 75.105469 81.050781 75.457031 81.578125 C 75.8125 82.109375 76.214844 82.597656 76.664062 83.050781 C 77.113281 83.5 77.605469 83.902344 78.132812 84.253906 C 78.664062 84.609375 79.222656 84.90625 79.808594 85.152344 C 80.398438 85.394531 81.003906 85.578125 81.628906 85.703125 C 82.253906 85.828125 82.882812 85.886719 83.519531 85.886719 C 84.15625 85.886719 84.789062 85.824219 85.410156 85.703125 C 86.035156 85.578125 86.640625 85.394531 87.230469 85.148438 C 87.820312 84.90625 88.378906 84.609375 88.90625 84.253906 C 89.4375 83.898438 89.925781 83.5 90.375 83.046875 C 90.824219 82.597656 91.226562 82.109375 91.582031 81.578125 C 91.933594 81.050781 92.234375 80.492188 92.476562 79.902344 C 92.722656 79.3125 92.90625 78.707031 93.027344 78.082031 C 93.152344 77.457031 93.214844 76.828125 93.214844 76.191406 C 93.214844 75.554688 93.152344 74.925781 93.027344 74.300781 C 92.902344 73.675781 92.71875 73.070312 92.472656 72.484375 C 92.230469 71.894531 91.933594 71.335938 91.578125 70.808594 C 91.222656 70.277344 90.824219 69.789062 90.371094 69.339844 C 89.921875 68.886719 89.433594 68.488281 88.902344 68.132812 C 88.375 67.78125 87.816406 67.480469 87.226562 67.238281 C 86.640625 66.992188 86.035156 66.808594 85.410156 66.683594 C 84.785156 66.558594 84.15625 66.496094 83.519531 66.496094 Z M 83.519531 66.496094 " fill-opacity="1" fill-rule="nonzero"/><path fill="#ffffff" d="M 73.167969 78.648438 C 72.957031 78.648438 72.773438 78.574219 72.625 78.425781 C 72.476562 78.273438 72.402344 78.09375 72.402344 77.882812 C 72.402344 77.566406 72.339844 77.257812 72.21875 76.964844 C 72.097656 76.671875 71.925781 76.414062 71.699219 76.1875 C 71.476562 75.964844 71.214844 75.789062 70.921875 75.667969 C 70.628906 75.546875 70.324219 75.488281 70.003906 75.488281 C 69.6875 75.488281 69.382812 75.546875 69.089844 75.667969 C 68.792969 75.789062 68.535156 75.964844 68.308594 76.1875 C 68.085938 76.414062 67.914062 76.671875 67.792969 76.964844 C 67.667969 77.257812 67.609375 77.566406 67.609375 77.882812 C 67.601562 78.089844 67.523438 78.261719 67.375 78.40625 C 67.226562 78.550781 67.050781 78.621094 66.84375 78.621094 C 66.636719 78.621094 66.460938 78.550781 66.3125 78.40625 C 66.164062 78.261719 66.085938 78.089844 66.078125 77.882812 C 66.078125 77.363281 66.179688 76.863281 66.378906 76.378906 C 66.578125 75.898438 66.859375 75.476562 67.230469 75.105469 C 67.597656 74.738281 68.023438 74.453125 68.503906 74.253906 C 68.984375 74.054688 69.484375 73.957031 70.003906 73.957031 C 70.527344 73.957031 71.027344 74.054688 71.507812 74.253906 C 71.988281 74.453125 72.414062 74.738281 72.78125 75.105469 C 73.148438 75.476562 73.433594 75.898438 73.632812 76.378906 C 73.832031 76.863281 73.929688 77.363281 73.929688 77.882812 C 73.929688 78.09375 73.855469 78.273438 73.707031 78.421875 C 73.558594 78.574219 73.378906 78.648438 73.167969 78.648438 Z M 73.167969 78.648438 " fill-opacity="1" fill-rule="nonzero"/><path fill="#555ce4" d="M 103.636719 49.460938 C 103.636719 49.460938 104.96875 42.550781 93.074219 36.492188 C 81.261719 30.476562 66.984375 32.339844 58.855469 35.023438 C 52.632812 37.070312 17.183594 50.851562 46.289062 58.015625 C 49.761719 58.871094 56 58.871094 62.578125 58.402344 C 61.421875 59.082031 60.796875 59.695312 60.914062 60.144531 C 61.242188 61.394531 67.085938 60.945312 73.964844 59.144531 C 78.78125 57.882812 82.824219 56.289062 84.707031 55.019531 C 85.28125 54.851562 85.84375 54.648438 86.390625 54.40625 C 87.730469 59.484375 97.222656 66.035156 99.359375 65.234375 C 101.5 64.433594 113.53125 55.476562 103.636719 49.460938 Z M 103.636719 49.460938 " fill-opacity="1" fill-rule="nonzero"/></svg>