<svg xmlns="http://www.w3.org/2000/svg" xmlns:xlink="http://www.w3.org/1999/xlink" width="200" zoomAndPan="magnify" viewBox="0 0 150 149.999998" height="200" preserveAspectRatio="xMidYMid meet" version="1.0"><defs><clipPath id="b4cf7b01f7"><path d="M 4.230469 4.230469 L 145 4.230469 L 145 145.980469 L 4.230469 145.980469 Z M 4.230469 4.230469 " clip-rule="nonzero"/></clipPath></defs><g clip-path="url(#b4cf7b01f7)"><path fill="#ffffff" d="M 141.925781 128.355469 L 102.816406 89.246094 L 99.265625 92.800781 L 90.996094 84.53125 C 97.976562 76.070312 102.175781 65.226562 102.175781 53.425781 C 102.175781 26.421875 80.207031 4.453125 53.203125 4.453125 C 26.199219 4.453125 4.230469 26.421875 4.230469 53.425781 C 4.230469 80.429688 26.199219 102.394531 53.203125 102.394531 C 64.792969 102.394531 75.449219 98.339844 83.84375 91.585938 L 92.164062 99.90625 L 88.609375 103.457031 L 127.71875 142.5625 C 129.679688 144.523438 132.25 145.507812 134.820312 145.507812 C 137.390625 145.507812 139.960938 144.523438 141.921875 142.5625 C 145.847656 138.640625 145.847656 132.277344 141.925781 128.355469 Z M 14.277344 53.421875 C 14.277344 31.960938 31.742188 14.496094 53.203125 14.496094 C 74.667969 14.496094 92.128906 31.960938 92.128906 53.421875 C 92.128906 74.886719 74.667969 92.347656 53.203125 92.347656 C 31.742188 92.347656 14.277344 74.886719 14.277344 53.421875 Z M 14.277344 53.421875 " fill-opacity="1" fill-rule="nonzero"/></g><path fill="#ffffff" d="M 71.304688 35.210938 C 80.675781 44.582031 84.878906 56.851562 83.554688 67.722656 C 85.300781 63.625 86.269531 59.117188 86.269531 54.382812 C 86.269531 35.589844 71.03125 20.355469 52.238281 20.355469 C 47.671875 20.355469 43.320312 21.261719 39.339844 22.890625 C 50.074219 21.769531 62.09375 26 71.304688 35.210938 Z M 71.304688 35.210938 " fill-opacity="1" fill-rule="nonzero"/></svg>