<svg xmlns="http://www.w3.org/2000/svg" xmlns:xlink="http://www.w3.org/1999/xlink" width="200" zoomAndPan="magnify" viewBox="0 0 150 149.999998" height="200" preserveAspectRatio="xMidYMid meet" version="1.0"><defs><clipPath id="1e0d61e526"><path d="M 3.453125 38 L 66 38 L 66 147.679688 L 3.453125 147.679688 Z M 3.453125 38 " clip-rule="nonzero"/></clipPath><clipPath id="ee14b4136e"><path d="M 84 38 L 146.703125 38 L 146.703125 147.679688 L 84 147.679688 Z M 84 38 " clip-rule="nonzero"/></clipPath></defs><path fill="#ffffff" d="M 23.390625 81.285156 C 23.757812 79.800781 24.511719 78.546875 25.65625 77.53125 L 25.65625 37.371094 C 25.65625 36.882812 25.5625 36.410156 25.375 35.957031 C 25.1875 35.503906 24.921875 35.101562 24.574219 34.757812 C 24.226562 34.410156 23.824219 34.140625 23.371094 33.953125 C 22.917969 33.765625 22.449219 33.671875 21.957031 33.671875 C 21.464844 33.671875 20.992188 33.765625 20.539062 33.953125 C 20.085938 34.140625 19.6875 34.410156 19.339844 34.757812 C 18.992188 35.101562 18.726562 35.503906 18.539062 35.957031 C 18.351562 36.410156 18.257812 36.882812 18.257812 37.371094 L 18.257812 74.757812 Z M 23.390625 81.285156 " fill-opacity="1" fill-rule="nonzero"/><g clip-path="url(#1e0d61e526)"><path fill="#ffffff" d="M 32.714844 81.328125 C 32.226562 80.804688 31.628906 80.546875 30.914062 80.546875 L 30.589844 80.546875 C 30.265625 80.546875 29.949219 80.609375 29.648438 80.734375 C 29.34375 80.859375 29.078125 81.035156 28.847656 81.269531 C 28.617188 81.5 28.4375 81.765625 28.3125 82.066406 C 28.1875 82.371094 28.125 82.683594 28.125 83.011719 L 28.125 87.316406 L 44.863281 108.625 L 40.984375 111.671875 L 13.847656 77.136719 C 13.496094 76.6875 13.320312 76.179688 13.320312 75.609375 L 13.320312 43.539062 C 13.320312 43.214844 13.289062 42.894531 13.226562 42.578125 C 13.164062 42.257812 13.070312 41.953125 12.945312 41.652344 C 12.824219 41.351562 12.671875 41.066406 12.492188 40.800781 C 12.3125 40.53125 12.105469 40.28125 11.878906 40.050781 C 11.648438 39.820312 11.398438 39.617188 11.128906 39.4375 C 10.859375 39.257812 10.574219 39.105469 10.277344 38.980469 C 9.976562 38.859375 9.667969 38.765625 9.351562 38.699219 C 9.03125 38.636719 8.710938 38.605469 8.386719 38.605469 C 8.0625 38.605469 7.742188 38.636719 7.425781 38.699219 C 7.109375 38.765625 6.800781 38.859375 6.5 38.980469 C 6.199219 39.105469 5.917969 39.257812 5.648438 39.4375 C 5.378906 39.617188 5.128906 39.820312 4.898438 40.050781 C 4.671875 40.28125 4.464844 40.53125 4.285156 40.800781 C 4.105469 41.066406 3.953125 41.351562 3.828125 41.652344 C 3.707031 41.953125 3.613281 42.257812 3.550781 42.578125 C 3.484375 42.894531 3.453125 43.214844 3.453125 43.539062 L 3.453125 84.851562 L 17.785156 111.136719 L 36.84375 130.195312 C 38.003906 131.347656 38.898438 132.679688 39.523438 134.191406 C 40.148438 135.699219 40.460938 137.273438 40.460938 138.90625 L 40.460938 147.152344 L 65.128906 147.152344 L 65.128906 118.972656 C 65.128906 118.035156 64.957031 117.128906 64.613281 116.257812 C 64.269531 115.382812 63.777344 114.605469 63.136719 113.921875 Z M 32.714844 81.328125 " fill-opacity="1" fill-rule="nonzero"/></g><path fill="#ffffff" d="M 46.625 70.675781 C 46.136719 70.675781 45.664062 70.769531 45.210938 70.957031 C 44.757812 71.148438 44.355469 71.414062 44.011719 71.761719 C 43.664062 72.109375 43.394531 72.507812 43.207031 72.960938 C 43.019531 73.414062 42.925781 73.886719 42.925781 74.378906 L 42.925781 85.035156 L 50.328125 92.964844 L 50.328125 74.378906 C 50.328125 73.886719 50.234375 73.414062 50.046875 72.960938 C 49.859375 72.507812 49.589844 72.109375 49.242188 71.761719 C 48.894531 71.414062 48.496094 71.148438 48.042969 70.957031 C 47.589844 70.769531 47.117188 70.675781 46.625 70.675781 Z M 46.625 70.675781 " fill-opacity="1" fill-rule="nonzero"/><path fill="#ffffff" d="M 36.320312 77.960938 L 37.988281 79.75 L 37.988281 52.175781 C 37.988281 51.683594 37.894531 51.210938 37.707031 50.757812 C 37.519531 50.304688 37.253906 49.90625 36.90625 49.558594 C 36.558594 49.210938 36.160156 48.945312 35.707031 48.753906 C 35.25 48.566406 34.78125 48.472656 34.289062 48.472656 C 33.796875 48.472656 33.328125 48.566406 32.875 48.753906 C 32.417969 48.945312 32.019531 49.210938 31.671875 49.558594 C 31.324219 49.90625 31.058594 50.304688 30.871094 50.757812 C 30.683594 51.210938 30.589844 51.683594 30.589844 52.175781 L 30.589844 75.609375 L 30.910156 75.609375 C 31.9375 75.613281 32.921875 75.816406 33.859375 76.226562 C 34.800781 76.632812 35.621094 77.214844 36.320312 77.960938 Z M 36.320312 77.960938 " fill-opacity="1" fill-rule="nonzero"/><path fill="#ffffff" d="M 119.078125 75.609375 L 119.402344 75.609375 L 119.402344 52.175781 C 119.402344 51.683594 119.308594 51.210938 119.121094 50.757812 C 118.933594 50.304688 118.667969 49.90625 118.320312 49.558594 C 117.972656 49.210938 117.570312 48.945312 117.117188 48.753906 C 116.664062 48.566406 116.191406 48.472656 115.703125 48.472656 C 115.210938 48.472656 114.738281 48.566406 114.285156 48.753906 C 113.832031 48.945312 113.433594 49.210938 113.085938 49.558594 C 112.738281 49.90625 112.472656 50.304688 112.285156 50.757812 C 112.097656 51.210938 112.003906 51.683594 112.003906 52.175781 L 112.003906 79.75 L 113.667969 77.960938 C 114.367188 77.214844 115.1875 76.636719 116.128906 76.226562 C 117.070312 75.816406 118.050781 75.613281 119.078125 75.609375 Z M 119.078125 75.609375 " fill-opacity="1" fill-rule="nonzero"/><path fill="#ffffff" d="M 99.667969 74.378906 L 99.667969 92.964844 L 107.066406 85.035156 L 107.066406 74.378906 C 107.066406 73.886719 106.972656 73.414062 106.785156 72.960938 C 106.597656 72.507812 106.332031 72.109375 105.984375 71.761719 C 105.636719 71.414062 105.238281 71.148438 104.785156 70.957031 C 104.332031 70.769531 103.859375 70.675781 103.367188 70.675781 C 102.875 70.675781 102.40625 70.769531 101.953125 70.957031 C 101.5 71.148438 101.097656 71.414062 100.75 71.761719 C 100.402344 72.109375 100.136719 72.507812 99.949219 72.960938 C 99.761719 73.414062 99.667969 73.886719 99.667969 74.378906 Z M 99.667969 74.378906 " fill-opacity="1" fill-rule="nonzero"/><g clip-path="url(#ee14b4136e)"><path fill="#ffffff" d="M 141.605469 38.605469 C 141.28125 38.605469 140.960938 38.636719 140.644531 38.699219 C 140.324219 38.765625 140.015625 38.859375 139.71875 38.980469 C 139.417969 39.105469 139.132812 39.257812 138.863281 39.4375 C 138.59375 39.617188 138.347656 39.820312 138.117188 40.050781 C 137.886719 40.28125 137.683594 40.53125 137.503906 40.800781 C 137.324219 41.066406 137.171875 41.351562 137.046875 41.652344 C 136.921875 41.953125 136.832031 42.257812 136.765625 42.578125 C 136.703125 42.894531 136.671875 43.214844 136.671875 43.539062 L 136.671875 75.609375 C 136.671875 76.179688 136.496094 76.6875 136.148438 77.136719 L 109.007812 111.671875 L 105.128906 108.625 L 121.871094 87.316406 L 121.871094 83.011719 C 121.871094 82.683594 121.808594 82.371094 121.683594 82.066406 C 121.558594 81.765625 121.378906 81.5 121.148438 81.269531 C 120.917969 81.035156 120.648438 80.859375 120.347656 80.734375 C 120.046875 80.609375 119.730469 80.546875 119.402344 80.546875 L 119.078125 80.546875 C 118.367188 80.546875 117.765625 80.808594 117.277344 81.328125 L 86.855469 113.921875 C 86.214844 114.605469 85.722656 115.382812 85.378906 116.257812 C 85.035156 117.128906 84.863281 118.035156 84.863281 118.972656 L 84.863281 147.152344 L 109.535156 147.152344 L 109.535156 138.90625 C 109.53125 137.269531 109.839844 135.695312 110.46875 134.183594 C 111.09375 132.671875 111.988281 131.339844 113.148438 130.183594 L 132.207031 111.136719 L 146.539062 84.851562 L 146.539062 43.539062 C 146.539062 43.214844 146.507812 42.894531 146.445312 42.578125 C 146.382812 42.257812 146.289062 41.953125 146.164062 41.652344 C 146.039062 41.351562 145.886719 41.066406 145.707031 40.800781 C 145.527344 40.53125 145.324219 40.28125 145.09375 40.050781 C 144.867188 39.820312 144.617188 39.617188 144.347656 39.4375 C 144.078125 39.257812 143.792969 39.105469 143.496094 38.980469 C 143.195312 38.859375 142.886719 38.765625 142.570312 38.699219 C 142.25 38.636719 141.929688 38.605469 141.605469 38.605469 Z M 141.605469 38.605469 " fill-opacity="1" fill-rule="nonzero"/></g><path fill="#ffffff" d="M 131.738281 74.757812 L 131.738281 37.371094 C 131.738281 36.882812 131.644531 36.410156 131.457031 35.957031 C 131.269531 35.503906 131 35.101562 130.652344 34.757812 C 130.308594 34.410156 129.90625 34.140625 129.453125 33.953125 C 129 33.765625 128.527344 33.671875 128.039062 33.671875 C 127.546875 33.671875 127.074219 33.765625 126.621094 33.953125 C 126.167969 34.140625 125.769531 34.410156 125.421875 34.757812 C 125.074219 35.101562 124.804688 35.503906 124.617188 35.957031 C 124.429688 36.410156 124.335938 36.882812 124.335938 37.371094 L 124.335938 77.53125 C 125.480469 78.550781 126.234375 79.804688 126.597656 81.292969 Z M 131.738281 74.757812 " fill-opacity="1" fill-rule="nonzero"/><path fill="#ffffff" d="M 81.542969 33.972656 C 81.289062 33.886719 81.054688 33.757812 80.84375 33.59375 C 80.632812 33.433594 80.453125 33.238281 80.304688 33.015625 C 80.152344 32.792969 80.042969 32.554688 79.972656 32.292969 C 79.902344 32.035156 79.875 31.773438 79.890625 31.507812 C 79.890625 31.4375 79.921875 31.179688 79.929688 31.109375 C 79.929688 30.789062 79.894531 30.46875 79.828125 30.148438 C 79.761719 29.832031 79.664062 29.527344 79.535156 29.226562 C 79.410156 28.929688 79.253906 28.648438 79.074219 28.378906 C 78.890625 28.113281 78.683594 27.863281 78.453125 27.636719 C 78.21875 27.410156 77.96875 27.210938 77.699219 27.03125 C 77.425781 26.855469 77.140625 26.707031 76.839844 26.585938 C 76.539062 26.464844 76.230469 26.371094 75.914062 26.3125 C 75.59375 26.253906 75.273438 26.222656 74.949219 26.226562 C 74.625 26.230469 74.304688 26.265625 73.988281 26.332031 C 73.671875 26.398438 73.363281 26.492188 73.066406 26.621094 C 72.769531 26.746094 72.484375 26.902344 72.21875 27.085938 C 71.949219 27.265625 71.703125 27.472656 71.476562 27.703125 C 71.25 27.933594 71.046875 28.1875 70.871094 28.457031 C 70.691406 28.726562 70.542969 29.015625 70.421875 29.3125 C 70.300781 29.613281 70.210938 29.921875 70.148438 30.242188 C 70.089844 30.558594 70.058594 30.882812 70.0625 31.203125 C 70.0625 31.265625 70.097656 31.4375 70.101562 31.503906 C 70.117188 31.769531 70.089844 32.035156 70.019531 32.292969 C 69.949219 32.550781 69.839844 32.792969 69.6875 33.011719 C 69.539062 33.234375 69.359375 33.429688 69.148438 33.59375 C 68.933594 33.757812 68.703125 33.882812 68.449219 33.96875 C 67.894531 34.15625 67.390625 34.433594 66.9375 34.800781 C 66.484375 35.167969 66.105469 35.601562 65.804688 36.105469 C 65.507812 36.605469 65.300781 37.144531 65.195312 37.71875 C 65.085938 38.292969 65.082031 38.867188 65.179688 39.441406 C 65.273438 40.019531 65.46875 40.5625 65.757812 41.066406 C 66.050781 41.574219 66.417969 42.015625 66.867188 42.390625 C 67.3125 42.765625 67.8125 43.054688 68.363281 43.25 C 68.910156 43.449219 69.480469 43.542969 70.0625 43.539062 C 71.324219 43.535156 72.417969 43.109375 73.347656 42.253906 C 73.574219 42.050781 73.828125 41.894531 74.113281 41.785156 C 74.398438 41.675781 74.691406 41.621094 74.996094 41.621094 C 75.300781 41.621094 75.597656 41.675781 75.882812 41.785156 C 76.164062 41.894531 76.421875 42.050781 76.648438 42.253906 C 77.574219 43.109375 78.667969 43.539062 79.929688 43.539062 C 80.515625 43.542969 81.078125 43.445312 81.628906 43.246094 C 82.175781 43.046875 82.671875 42.761719 83.117188 42.386719 C 83.5625 42.011719 83.929688 41.570312 84.21875 41.0625 C 84.507812 40.558594 84.703125 40.015625 84.800781 39.441406 C 84.894531 38.867188 84.890625 38.292969 84.785156 37.71875 C 84.675781 37.148438 84.472656 36.609375 84.175781 36.109375 C 83.875 35.609375 83.5 35.175781 83.046875 34.808594 C 82.597656 34.441406 82.09375 34.164062 81.542969 33.976562 Z M 81.542969 33.972656 " fill-opacity="1" fill-rule="nonzero"/><path fill="#ffffff" d="M 101.789062 9.511719 C 101.199219 8.890625 100.566406 8.3125 99.890625 7.785156 C 99.214844 7.257812 98.503906 6.78125 97.757812 6.359375 C 97.011719 5.933594 96.242188 5.570312 95.441406 5.257812 C 94.640625 4.949219 93.824219 4.703125 92.988281 4.511719 C 92.152344 4.324219 91.304688 4.199219 90.449219 4.132812 C 89.59375 4.070312 88.738281 4.070312 87.882812 4.132812 C 87.03125 4.195312 86.183594 4.316406 85.347656 4.503906 C 84.511719 4.691406 83.691406 4.941406 82.890625 5.246094 L 75.894531 7.960938 C 75.296875 8.195312 74.699219 8.195312 74.105469 7.960938 L 67.101562 5.246094 C 65.097656 4.464844 63.015625 4.070312 60.863281 4.066406 C 59.679688 4.070312 58.507812 4.191406 57.351562 4.433594 C 56.191406 4.671875 55.070312 5.023438 53.980469 5.492188 C 52.894531 5.957031 51.863281 6.527344 50.890625 7.203125 C 49.917969 7.875 49.023438 8.640625 48.207031 9.496094 C 47.773438 9.945312 47.367188 10.414062 46.980469 10.898438 C 46.597656 11.386719 46.238281 11.894531 45.902344 12.417969 C 45.566406 12.941406 45.253906 13.480469 44.972656 14.03125 C 44.6875 14.585938 44.433594 15.152344 44.207031 15.730469 C 43.976562 16.308594 43.777344 16.894531 43.605469 17.492188 C 43.4375 18.089844 43.292969 18.695312 43.183594 19.308594 C 43.070312 19.917969 42.988281 20.535156 42.9375 21.15625 C 42.882812 21.773438 42.863281 22.394531 42.871094 23.015625 C 42.878906 23.636719 42.917969 24.257812 42.988281 24.875 C 43.054688 25.492188 43.15625 26.105469 43.285156 26.714844 C 43.414062 27.324219 43.570312 27.921875 43.757812 28.515625 C 43.945312 29.109375 44.160156 29.691406 44.402344 30.261719 C 44.648438 30.835938 44.917969 31.394531 45.21875 31.9375 C 45.515625 32.484375 45.839844 33.015625 46.191406 33.527344 C 46.539062 34.042969 46.914062 34.539062 47.3125 35.015625 C 47.710938 35.492188 48.128906 35.949219 48.574219 36.386719 L 74.996094 62.289062 L 101.417969 36.386719 C 101.859375 35.949219 102.28125 35.492188 102.679688 35.015625 C 103.074219 34.539062 103.449219 34.042969 103.800781 33.527344 C 104.148438 33.015625 104.472656 32.484375 104.769531 31.941406 C 105.066406 31.394531 105.339844 30.835938 105.582031 30.265625 C 105.824219 29.695312 106.042969 29.113281 106.226562 28.519531 C 106.414062 27.925781 106.574219 27.328125 106.699219 26.71875 C 106.828125 26.113281 106.929688 25.5 106.996094 24.882812 C 107.066406 24.265625 107.105469 23.644531 107.113281 23.023438 C 107.121094 22.402344 107.101562 21.78125 107.046875 21.164062 C 106.996094 20.542969 106.914062 19.929688 106.804688 19.316406 C 106.691406 18.707031 106.550781 18.101562 106.378906 17.503906 C 106.210938 16.90625 106.011719 16.320312 105.78125 15.742188 C 105.554688 15.164062 105.300781 14.597656 105.015625 14.046875 C 104.734375 13.492188 104.425781 12.953125 104.089844 12.429688 C 103.753906 11.910156 103.394531 11.402344 103.011719 10.914062 C 102.625 10.425781 102.21875 9.957031 101.789062 9.511719 Z M 78.105469 11.390625 C 78.320312 11.09375 78.558594 10.816406 78.828125 10.566406 C 79.09375 10.316406 79.382812 10.09375 79.695312 9.898438 C 80.003906 9.707031 80.332031 9.542969 80.671875 9.414062 C 81.015625 9.285156 81.367188 9.191406 81.730469 9.128906 C 82.089844 9.066406 82.453125 9.042969 82.820312 9.054688 C 83.1875 9.066406 83.550781 9.109375 83.90625 9.191406 C 84.261719 9.273438 84.609375 9.390625 84.945312 9.539062 C 85.277344 9.691406 85.59375 9.871094 85.894531 10.082031 C 86.460938 10.613281 86.867188 11.25 87.109375 11.988281 C 87.355469 12.726562 87.410156 13.476562 87.269531 14.242188 C 87.039062 15.664062 86.433594 16.90625 85.460938 17.96875 C 84.851562 18.691406 84.125 19.261719 83.277344 19.675781 C 82.433594 20.089844 81.539062 20.316406 80.59375 20.355469 C 79.480469 20.375 78.503906 20.015625 77.667969 19.277344 C 77.425781 19.003906 77.210938 18.707031 77.023438 18.394531 C 76.839844 18.078125 76.683594 17.746094 76.5625 17.398438 C 76.441406 17.054688 76.355469 16.699219 76.304688 16.335938 C 76.253906 15.972656 76.238281 15.609375 76.261719 15.242188 C 76.28125 14.875 76.335938 14.515625 76.429688 14.160156 C 76.519531 13.804688 76.644531 13.464844 76.804688 13.132812 C 76.960938 12.800781 77.152344 12.492188 77.371094 12.195312 C 77.589844 11.902344 77.835938 11.636719 78.109375 11.390625 Z M 64.089844 10.082031 C 64.386719 9.871094 64.703125 9.691406 65.039062 9.539062 C 65.371094 9.390625 65.71875 9.273438 66.074219 9.191406 C 66.433594 9.109375 66.792969 9.0625 67.160156 9.054688 C 67.527344 9.042969 67.890625 9.066406 68.253906 9.128906 C 68.613281 9.1875 68.964844 9.285156 69.308594 9.414062 C 69.652344 9.542969 69.976562 9.707031 70.289062 9.898438 C 70.601562 10.09375 70.886719 10.316406 71.15625 10.566406 C 71.421875 10.816406 71.664062 11.09375 71.875 11.390625 C 72.148438 11.636719 72.398438 11.902344 72.617188 12.199219 C 72.835938 12.492188 73.027344 12.804688 73.1875 13.132812 C 73.34375 13.464844 73.46875 13.808594 73.5625 14.164062 C 73.652344 14.519531 73.707031 14.878906 73.730469 15.246094 C 73.75 15.613281 73.734375 15.976562 73.683594 16.339844 C 73.628906 16.707031 73.542969 17.058594 73.421875 17.40625 C 73.300781 17.753906 73.148438 18.085938 72.960938 18.398438 C 72.773438 18.714844 72.558594 19.011719 72.3125 19.285156 C 71.476562 20.023438 70.5 20.382812 69.386719 20.363281 C 68.445312 20.324219 67.550781 20.097656 66.703125 19.683594 C 65.855469 19.269531 65.128906 18.699219 64.523438 17.976562 C 63.546875 16.914062 62.945312 15.671875 62.710938 14.25 C 62.574219 13.484375 62.625 12.730469 62.871094 11.988281 C 63.117188 11.25 63.523438 10.613281 64.09375 10.082031 Z M 54.910156 29.457031 C 54.625 29.230469 54.363281 28.972656 54.128906 28.691406 C 53.894531 28.414062 53.6875 28.113281 53.511719 27.789062 C 53.332031 27.46875 53.191406 27.132812 53.078125 26.785156 C 52.96875 26.433594 52.894531 26.078125 52.851562 25.714844 C 52.8125 25.347656 52.808594 24.984375 52.839844 24.621094 C 52.871094 24.253906 52.9375 23.894531 53.039062 23.542969 C 53.140625 23.191406 53.273438 22.851562 53.441406 22.527344 C 53.609375 22.203125 53.808594 21.894531 54.039062 21.609375 C 54.324219 21.378906 54.628906 21.183594 54.957031 21.015625 C 55.28125 20.847656 55.621094 20.710938 55.972656 20.609375 C 56.324219 20.507812 56.683594 20.441406 57.050781 20.410156 C 57.414062 20.378906 57.78125 20.382812 58.144531 20.425781 C 58.507812 20.464844 58.863281 20.542969 59.214844 20.652344 C 59.5625 20.761719 59.898438 20.90625 60.222656 21.082031 C 60.542969 21.257812 60.84375 21.464844 61.125 21.699219 C 61.40625 21.9375 61.660156 22.195312 61.890625 22.480469 C 62.921875 23.488281 63.589844 24.695312 63.902344 26.101562 C 64.085938 26.859375 64.074219 27.613281 63.871094 28.363281 C 63.667969 29.113281 63.296875 29.769531 62.761719 30.332031 C 61.886719 31.1875 60.839844 31.605469 59.617188 31.578125 C 58.726562 31.546875 57.871094 31.347656 57.058594 30.980469 C 56.242188 30.613281 55.53125 30.105469 54.914062 29.457031 Z M 79.929688 48.472656 C 78.164062 48.472656 76.519531 48.023438 74.996094 47.128906 C 73.472656 48.023438 71.828125 48.472656 70.0625 48.472656 C 69.523438 48.476562 68.984375 48.433594 68.453125 48.34375 C 67.917969 48.257812 67.394531 48.128906 66.882812 47.953125 C 66.371094 47.78125 65.875 47.566406 65.398438 47.3125 C 64.921875 47.058594 64.46875 46.765625 64.039062 46.4375 C 63.613281 46.109375 63.214844 45.746094 62.84375 45.351562 C 62.476562 44.957031 62.140625 44.53125 61.839844 44.082031 C 61.542969 43.632812 61.28125 43.160156 61.058594 42.667969 C 60.835938 42.175781 60.65625 41.667969 60.519531 41.144531 C 60.378906 40.621094 60.285156 40.089844 60.234375 39.550781 C 60.183594 39.015625 60.179688 38.476562 60.214844 37.9375 C 60.253906 37.394531 60.335938 36.863281 60.460938 36.339844 C 60.589844 35.8125 60.753906 35.300781 60.964844 34.800781 C 61.175781 34.304688 61.425781 33.824219 61.714844 33.367188 C 62.003906 32.910156 62.328125 32.480469 62.6875 32.078125 C 63.046875 31.675781 63.4375 31.300781 63.859375 30.964844 C 64.277344 30.625 64.726562 30.320312 65.195312 30.054688 C 65.265625 29.460938 65.386719 28.875 65.5625 28.300781 C 65.742188 27.730469 65.96875 27.175781 66.242188 26.644531 C 66.519531 26.113281 66.84375 25.609375 67.210938 25.136719 C 67.582031 24.664062 67.988281 24.226562 68.4375 23.828125 C 68.882812 23.429688 69.363281 23.074219 69.878906 22.765625 C 70.390625 22.453125 70.925781 22.191406 71.488281 21.976562 C 72.046875 21.765625 72.621094 21.601562 73.210938 21.496094 C 73.800781 21.386719 74.398438 21.332031 74.996094 21.332031 C 75.597656 21.332031 76.191406 21.386719 76.78125 21.496094 C 77.371094 21.601562 77.945312 21.765625 78.507812 21.976562 C 79.066406 22.191406 79.605469 22.453125 80.117188 22.765625 C 80.628906 23.074219 81.109375 23.429688 81.558594 23.828125 C 82.003906 24.226562 82.414062 24.664062 82.78125 25.136719 C 83.152344 25.609375 83.472656 26.113281 83.75 26.644531 C 84.027344 27.175781 84.253906 27.730469 84.429688 28.300781 C 84.605469 28.875 84.730469 29.460938 84.796875 30.054688 C 85.269531 30.320312 85.714844 30.625 86.136719 30.964844 C 86.558594 31.300781 86.949219 31.675781 87.308594 32.078125 C 87.667969 32.480469 87.992188 32.910156 88.28125 33.367188 C 88.570312 33.824219 88.816406 34.304688 89.027344 34.800781 C 89.238281 35.300781 89.40625 35.8125 89.53125 36.339844 C 89.65625 36.863281 89.738281 37.394531 89.777344 37.9375 C 89.816406 38.476562 89.808594 39.015625 89.757812 39.550781 C 89.707031 40.089844 89.613281 40.621094 89.476562 41.144531 C 89.335938 41.667969 89.15625 42.175781 88.933594 42.667969 C 88.714844 43.160156 88.453125 43.632812 88.152344 44.082031 C 87.855469 44.53125 87.519531 44.957031 87.152344 45.351562 C 86.78125 45.746094 86.382812 46.109375 85.953125 46.4375 C 85.523438 46.765625 85.070312 47.058594 84.59375 47.3125 C 84.117188 47.566406 83.625 47.78125 83.109375 47.953125 C 82.597656 48.128906 82.078125 48.257812 81.542969 48.34375 C 81.007812 48.433594 80.472656 48.476562 79.929688 48.472656 Z M 95.074219 29.460938 C 94.460938 30.109375 93.746094 30.617188 92.929688 30.984375 C 92.117188 31.351562 91.261719 31.550781 90.367188 31.582031 C 89.144531 31.605469 88.097656 31.191406 87.226562 30.335938 C 86.6875 29.773438 86.320312 29.117188 86.117188 28.367188 C 85.914062 27.613281 85.902344 26.863281 86.082031 26.105469 C 86.394531 24.699219 87.066406 23.492188 88.097656 22.484375 C 88.328125 22.199219 88.582031 21.9375 88.863281 21.703125 C 89.144531 21.46875 89.445312 21.261719 89.765625 21.085938 C 90.085938 20.910156 90.421875 20.765625 90.773438 20.65625 C 91.121094 20.542969 91.480469 20.46875 91.84375 20.429688 C 92.207031 20.386719 92.570312 20.382812 92.9375 20.414062 C 93.300781 20.445312 93.660156 20.511719 94.011719 20.613281 C 94.367188 20.714844 94.703125 20.847656 95.03125 21.015625 C 95.355469 21.183594 95.664062 21.382812 95.949219 21.609375 C 96.175781 21.898438 96.375 22.203125 96.542969 22.527344 C 96.710938 22.855469 96.847656 23.195312 96.949219 23.546875 C 97.050781 23.898438 97.117188 24.257812 97.148438 24.621094 C 97.179688 24.984375 97.171875 25.351562 97.132812 25.714844 C 97.09375 26.078125 97.015625 26.4375 96.90625 26.785156 C 96.796875 27.132812 96.652344 27.46875 96.476562 27.789062 C 96.300781 28.113281 96.09375 28.414062 95.859375 28.691406 C 95.621094 28.972656 95.363281 29.230469 95.074219 29.457031 Z M 95.074219 29.460938 " fill-opacity="1" fill-rule="nonzero"/></svg>